<?xml version="1.0" encoding="UTF-8"?>
<svg width="122px" height="95px" viewBox="0 0 122 95" version="1.1" xmlns="http://www.w3.org/2000/svg" xmlns:xlink="http://www.w3.org/1999/xlink">
    <!-- Generator: Sketch 46.2 (44496) - http://www.bohemiancoding.com/sketch -->
    <title>logo</title>
    <desc>Created with Sketch.</desc>
    <defs>
        <polygon id="path-1" points="0 94.9070299 121.808746 94.9070299 121.808746 -2.84217094e-14 0 -2.84217094e-14"></polygon>
    </defs>
    <g id="Page-1" stroke="none" stroke-width="1" fill="none" fill-rule="evenodd">
        <g id="Главная" transform="translate(-122.000000, -60.000000)">
            <g id="logo" transform="translate(122.000000, 60.000000)">
                <g id="Page-1">
                    <path d="M59.3893182,18.7527564 C59.2846317,18.7527564 59.1843743,18.6991667 59.1255888,18.6082265 C57.998196,16.8876709 55.7486449,13.0247436 53.9436086,9.91978632 C52.687371,7.76320513 51.4987769,5.72192308 51.2314238,5.34314103 C50.3931267,4.66961538 50.8666317,3.40782051 50.8867637,3.35301282 C50.9290409,3.23040598 52.1272983,0.0889102564 60.931833,0.000405982906 C61.1138264,-0.0069017094 61.2499188,0.140064103 61.2523347,0.315854701 C61.2535426,0.493269231 61.1126185,0.636581197 60.9378726,0.639017094 C52.574229,0.725491453 51.4915294,3.5458547 51.4806581,3.57508547 C51.4758264,3.59457265 51.1444535,4.48448718 51.6481564,4.86245726 C51.6719122,4.87950855 51.6936548,4.90102564 51.7105657,4.92213675 C51.9384601,5.21809829 52.9148627,6.89155983 54.4891861,9.59581197 C56.2269815,12.5781624 58.3706383,16.2620513 59.5254106,18.0556838 C60.0589089,17.8989744 60.5718726,17.8104701 61.0490013,17.7982906 C61.2257604,17.789765 61.3691003,17.931859 61.3727241,18.1092735 C61.3775558,18.2826282 61.2402554,18.4320299 61.0647043,18.4356838 C60.581536,18.4502991 60.0516614,18.5509829 59.4891729,18.738141 C59.4557538,18.7478846 59.4227373,18.7527564 59.3893182,18.7527564 Z" id="Fill-1" fill="#1D1D1B"></path>
                    <path d="M59.6555036,20.3883803 C59.4807578,20.3883803 59.3120515,20.3311368 59.1666983,20.2134017 C58.8506257,19.9608803 58.6907776,19.4680171 58.7676818,18.9869274 C58.8401571,18.5513077 59.095431,18.2257094 59.4674706,18.092141 C59.6325531,18.0324615 59.8145465,18.1189359 59.873332,18.282547 C59.9337281,18.4506239 59.8471604,18.6325043 59.6804673,18.6934017 C59.4867974,18.7648547 59.4183485,18.948359 59.3941901,19.0916709 C59.350705,19.3624615 59.4433122,19.6210726 59.5600779,19.7144487 C59.5987314,19.7448974 59.6530878,19.7692564 59.7626059,19.7229744 C59.7722693,19.7205385 59.7831406,19.7168846 59.792804,19.7144487 L59.8902429,19.6827821 C60.2107446,19.5869701 60.4853452,19.5041496 61.1162825,19.5041496 C61.2930416,19.5041496 61.4339657,19.6462436 61.4339657,19.8212222 C61.4339657,19.9986368 61.2930416,20.1419487 61.1162825,20.1419487 C60.5791604,20.1419487 60.377035,20.2048761 60.0722363,20.2958162 L59.9905003,20.3226111 C59.8757479,20.3676752 59.7638139,20.3883803 59.6555036,20.3883803" id="Fill-3" fill="#1D1D1B"></path>
                    <path d="M62.6674541,20.4198846 C62.5611571,20.4198846 62.450431,20.3991795 62.339705,20.3528974 L62.2615927,20.3289444 C61.9386752,20.2302906 61.6616587,20.1478761 61.119705,20.1478761 C60.9441538,20.1478761 60.8020218,20.0045641 60.8020218,19.8295855 C60.8020218,19.6525769 60.9441538,19.509265 61.119705,19.509265 C61.754266,19.509265 62.1049657,19.6136026 62.4431835,19.7167222 L62.5337776,19.744735 C62.5458568,19.7471709 62.5555201,19.7496068 62.5671967,19.7556966 C62.6759096,19.8031966 62.7189921,19.769094 62.7371109,19.7520427 C62.8409921,19.6708462 62.9203122,19.4264444 62.8756191,19.1568718 C62.857903,19.0464444 62.7914673,18.7829615 62.5555201,18.6968932 C62.3892297,18.6396496 62.3034673,18.4565513 62.3626554,18.2876624 C62.4230515,18.1224274 62.6034343,18.0375769 62.7685168,18.0968504 C63.1574673,18.2352906 63.4248205,18.5840299 63.5021274,19.0500983 C63.5802396,19.532 63.4308601,20.0155256 63.132101,20.2546496 C62.9939954,20.363859 62.8349525,20.4198846 62.6674541,20.4198846" id="Fill-5" fill="#1D1D1B"></path>
                    <path d="M62.6120106,18.7527564 C62.5793967,18.7527564 62.5455749,18.7478846 62.5133637,18.738141 C61.9508752,18.5509829 61.4210007,18.4502991 60.9366244,18.4356838 C60.7622812,18.4320299 60.622565,18.2826282 60.6286046,18.1092735 C60.6342416,17.931859 60.7828158,17.7946368 60.9547432,17.7982906 C61.4302614,17.8104701 61.9412119,17.8989744 62.478334,18.0556838 C63.632301,16.2620513 65.7771657,12.5781624 67.5121426,9.59581197 C69.0876739,6.89155983 70.0628686,5.21809829 70.291971,4.92213675 C70.3088818,4.90102564 70.3294165,4.87950855 70.3531723,4.86245726 C70.8564726,4.48448718 70.5267102,3.59457265 70.5242944,3.58482906 C70.5097993,3.5507265 69.3401294,0.723867521 61.064664,0.639017094 C60.8899182,0.636581197 60.7489941,0.493269231 60.750202,0.315854701 C60.7514099,0.140064103 60.8947498,-0.0069017094 61.0690931,0.000405982906 C69.8740304,0.0889102564 71.0718851,3.23040598 71.1177861,3.36397436 C71.135905,3.40782051 71.6102152,4.66961538 70.769905,5.34314103 C70.5013439,5.72192308 69.3151657,7.76320513 68.060136,9.91856838 C66.2526838,13.0247436 64.0031327,16.8876709 62.8781558,18.6082265 C62.8165518,18.6991667 62.716697,18.7527564 62.6120106,18.7527564" id="Fill-7" fill="#1D1D1B"></path>
                    <path d="M51.5830495,5.46708761 C51.5158086,5.46708761 51.4469571,5.44638248 51.3881716,5.40131838 C51.2492607,5.28967308 51.2267129,5.09317735 51.3350231,4.95108333 C51.4300462,4.82969444 53.7363696,1.96751496 60.6344026,1.96751496 L60.7491551,1.96751496 C67.7071815,1.99918162 70.6400132,4.77001496 70.76,4.88896795 C70.8880396,5.01035684 70.8916634,5.21213034 70.770066,5.34082692 C70.6492739,5.46708761 70.4483564,5.47074145 70.3219274,5.34813462 C70.2929373,5.32133974 67.4253333,2.63779274 60.7451287,2.60490812 L60.6380264,2.60490812 C54.0419736,2.60490812 51.8552343,5.31890385 51.8334917,5.34569872 C51.7706799,5.4268953 51.6768647,5.46708761 51.5830495,5.46708761" id="Fill-9" fill="#1D1D1B"></path>
                    <path d="M59.4891729,22.3990513 C59.3856944,22.3990513 59.2834238,22.3897137 59.1795426,22.3629188 C58.7797208,22.2679188 58.5043149,22.0068718 58.4076812,21.6305256 C58.2860838,21.1664872 58.4692851,20.5985171 58.6569155,20.387 C58.9508429,19.9862949 59.5302422,19.8446068 60.0927307,19.7057607 C60.2348627,19.6708462 60.3790079,19.6379615 60.5175162,19.5989872 C60.6850145,19.5482393 60.8609683,19.6489231 60.9076746,19.8190299 C60.9547835,19.9899487 60.8585525,20.1661453 60.6886383,20.2136453 C60.5428825,20.2546496 60.392295,20.2899701 60.2409023,20.3289444 C59.7867241,20.4393718 59.3124139,20.5571068 59.1594106,20.7730897 C59.1473314,20.7937949 59.1340442,20.8088162 59.1159254,20.8242436 C59.0712323,20.886359 58.9423875,21.2529615 59.030163,21.503047 C59.0595558,21.5878974 59.121965,21.6897991 59.3281168,21.740953 C59.5580244,21.7981966 59.8664469,21.7096923 60.1635954,21.6256538 C60.4261168,21.551765 60.7019254,21.4750342 60.9608231,21.4847778 C61.135569,21.4884316 61.2704535,21.6390513 61.2668297,21.812812 C61.2583743,21.9898205 61.1138264,22.1258248 60.9390805,22.1233889 C60.7776218,22.1189231 60.5610013,22.1794145 60.3335096,22.2415299 C60.0697802,22.3178547 59.7794766,22.3990513 59.4891729,22.3990513" id="Fill-11" fill="#1D1D1B"></path>
                    <path d="M62.8093848,22.3930833 C62.5384079,22.3930833 62.2388436,22.3212244 61.9255894,22.2448996 C61.566837,22.1563953 61.1931868,22.0666731 60.9391208,22.116203 C60.7671934,22.1527415 60.600903,22.0374423 60.5658733,21.8648996 C60.5332594,21.6899209 60.6464013,21.5234679 60.8175234,21.4881474 C61.2076818,21.4130406 61.6485729,21.521438 62.0761769,21.6245577 C62.4083551,21.7045363 62.7493914,21.7881688 62.9418535,21.7410748 C63.1492132,21.6899209 63.2092066,21.5880192 63.2394046,21.5031688 C63.3259723,21.2526774 63.1971274,20.8864808 63.1407578,20.8121859 C63.1250548,20.7963526 63.1226389,20.7939167 63.1093518,20.7732115 C62.9225267,20.5060748 62.4385531,20.3749423 61.9231736,20.2304124 L61.7109822,20.1711389 C61.5426785,20.1236389 61.443629,19.9486603 61.490738,19.7765235 C61.5390548,19.6064167 61.713398,19.5089808 61.8821043,19.5564808 L62.0926851,19.6161603 C62.7083221,19.7862671 63.2937611,19.9462244 63.6142627,20.3871218 C63.8002825,20.5986389 63.9826785,21.166609 63.8622891,21.6306474 C63.7644475,22.0069936 63.4898469,22.2643868 63.0888172,22.3626346 C63.0010416,22.3845577 62.9056158,22.3930833 62.8093848,22.3930833" id="Fill-13" fill="#1D1D1B"></path>
                    <path d="M64.0595828,13.2154744 C64.0185135,13.2154744 63.9766389,13.2081667 63.935167,13.1911154 C63.7753188,13.1220983 63.6992198,12.9361581 63.7660581,12.773359 C64.6591142,10.6045983 66.3622825,6.47981197 66.3985201,6.39008974 C66.4633452,6.22363675 66.6477545,6.14447009 66.8100185,6.21145726 C66.9726851,6.27682051 67.0512,6.46397863 66.9859723,6.62799573 C66.943695,6.73111538 64.4581967,12.7611795 64.3510944,13.0201966 C64.3003617,13.1411795 64.1823881,13.2154744 64.0595828,13.2154744" id="Fill-15" fill="#FEFEFE"></path>
                    <path d="M63.1526759,15.3308077 C63.1083855,15.3308077 63.0612766,15.3210641 63.0165835,15.300359 C62.8587485,15.2228162 62.7923129,15.0307863 62.8676066,14.872859 L63.3201743,13.9183932 C63.3946627,13.7580299 63.5851116,13.6926667 63.7437518,13.7677735 C63.9007815,13.8445043 63.9680224,14.0365342 63.8919234,14.1940556 L63.4405637,15.1485214 C63.385402,15.2638205 63.2718574,15.3308077 63.1526759,15.3308077" id="Fill-17" fill="#FEFEFE"></path>
                    <path d="M57.8477696,23.2443077 C57.617862,23.2443077 57.4249974,23.5041368 57.4249974,23.8151197 C57.4249974,24.1256966 57.617862,24.3867436 57.8477696,24.3867436 C58.0776772,24.3867436 58.2705419,24.1256966 58.2705419,23.8151197 C58.2705419,23.5041368 58.0776772,23.2443077 57.8477696,23.2443077 M57.8477696,25.0269786 C57.2623307,25.0269786 56.7904363,24.4829615 56.7904363,23.8151197 C56.7904363,23.1472778 57.2623307,22.6044786 57.8477696,22.6044786 C58.4307927,22.6044786 58.905103,23.1472778 58.905103,23.8151197 C58.905103,24.4829615 58.4307927,25.0269786 57.8477696,25.0269786" id="Fill-19" fill="#1D1D1B"></path>
                    <path d="M58.5366469,25.839391 C58.2390957,25.839391 57.8477294,25.746015 57.5276304,25.4772543 C57.2647063,25.2551816 57.1096898,24.9563782 57.0782838,24.6092628 C57.0637888,24.4342842 57.1926337,24.2787927 57.3673795,24.2658013 C57.5429307,24.24875 57.6947261,24.3774466 57.7092211,24.5544551 C57.7249241,24.7294338 57.8006205,24.8751816 57.934297,24.9880449 C58.1344092,25.1544979 58.4186733,25.2137714 58.600264,25.197938 C59.0399472,25.1569338 59.4651353,25.0063141 59.5903564,24.1817628 C59.6857822,23.5756303 59.5939802,23.1046902 59.3290429,22.8144124 C59.124099,22.5911218 58.8579538,22.5253526 58.6932739,22.5375321 L58.6703234,22.5375321 C58.6630759,22.5375321 57.8706799,22.5497115 57.7901518,23.0754594 C57.7635776,23.250438 57.6021188,23.370609 57.4285809,23.3438141 C57.2566535,23.3186432 57.1370693,23.1521902 57.1636436,22.9772115 C57.2936964,22.1307372 58.1899736,21.9037927 58.6582442,21.8989209 C58.977538,21.8769979 59.4409769,21.992297 59.7948977,22.3800107 C60.075538,22.6857158 60.3767129,23.2650534 60.216462,24.2787927 C60.0719142,25.2296047 59.5484818,25.7533226 58.6570363,25.8345192 C58.6195908,25.8369551 58.5785215,25.839391 58.5366469,25.839391" id="Fill-21" fill="#1D1D1B"></path>
                    <path d="M61.3150257,26.4999252 C61.1716858,26.4999252 61.027138,26.4889637 60.883798,26.4662286 C60.4392832,26.3968056 60.0805307,26.2254808 59.8457914,25.9705235 C58.9100554,26.1308868 58.3246165,25.8572543 58.2980422,25.8466987 C58.139402,25.7699679 58.0717584,25.5819979 58.1450389,25.4216346 C58.2223459,25.2612714 58.4103789,25.1934722 58.5690191,25.2673611 C58.5702271,25.269797 59.0823855,25.4955235 59.9069927,25.3087714 C60.039864,25.2771047 60.1767617,25.3355662 60.2456132,25.4545192 C60.359963,25.6412714 60.6285241,25.7797115 60.981237,25.8345192 C61.5002403,25.9132799 62.0204515,25.7894551 62.2048607,25.627062 C62.313171,25.5332799 62.469798,25.5223184 62.5893822,25.602703 C62.6070983,25.6120406 62.6457518,25.6339637 62.6904449,25.6583226 C62.8164713,25.7277457 62.9155208,25.7821474 62.9916198,25.8333013 C63.0685241,25.8333013 63.2501149,25.81625 63.4164053,25.6814637 C63.6527551,25.4934936 63.7932766,25.1191774 63.8246825,24.605609 C63.8774284,23.7177244 63.3358772,23.3986218 63.1405967,23.3149893 C62.657831,23.3864423 62.5998508,23.3864423 62.5769003,23.3864423 C62.5072436,23.3864423 62.4387947,23.3633013 62.3832304,23.3198611 C61.5376858,22.6540491 60.421567,22.9979167 60.4102931,23.0015705 C60.345468,23.0210577 60.2766165,23.0210577 60.2129993,22.9979167 L59.3171248,22.6857158 C59.1520422,22.6272543 59.0642667,22.4465919 59.1218442,22.2801389 C59.1786165,22.11125 59.3581941,22.0227457 59.5252898,22.0836432 L60.3261413,22.3605235 C60.6671776,22.2801389 61.7446429,22.087297 62.6674944,22.7364637 C62.7758046,22.7222543 62.963435,22.6954594 63.1252964,22.6686645 C63.1732106,22.6625748 63.2211248,22.6637927 63.2670257,22.6784081 C63.7115406,22.8144124 64.5317188,23.4010577 64.4584383,24.6433654 C64.3883789,25.791891 63.8774284,26.2230449 63.4610983,26.3821902 C63.2718574,26.457297 62.8249267,26.5486432 62.643336,26.3651389 C62.6167617,26.3444338 62.5048277,26.2847543 62.4311446,26.24375 C62.1424515,26.4065491 61.7365901,26.4999252 61.3150257,26.4999252" id="Fill-23" fill="#1D1D1B"></path>
                    <path d="M60.0373274,29.4081838 C59.8625815,29.4081838 59.7204495,29.2636538 59.7204495,29.0886752 L59.7204495,25.8063034 C59.7204495,25.6292949 59.8625815,25.4859829 60.0373274,25.4859829 C60.2132812,25.4859829 60.3554132,25.6292949 60.3554132,25.8063034 L60.3554132,29.0886752 C60.3554132,29.2636538 60.2132812,29.4081838 60.0373274,29.4081838" id="Fill-25" fill="#1D1D1B"></path>
                    <path d="M61.9195901,29.8913034 C61.7448442,29.8913034 61.6027122,29.7467735 61.6027122,29.5705769 L61.6027122,26.2411111 C61.6027122,26.0653205 61.7448442,25.9207906 61.9195901,25.9207906 C62.094336,25.9207906 62.2376759,26.0653205 62.2376759,26.2411111 L62.2376759,29.5705769 C62.2376759,29.7467735 62.094336,29.8913034 61.9195901,29.8913034" id="Fill-27" fill="#1D1D1B"></path>
                    <path d="M61.2354238,30.5591453 C61.0574568,30.5591453 60.8730475,30.5347863 60.6886383,30.4791667 C59.9638858,30.2619658 59.5290343,29.7191667 59.675998,29.2210256 C59.7818924,28.8641667 60.1575558,28.642094 60.6584403,28.642094 C60.8392257,28.642094 61.0248429,28.6697009 61.2080442,28.7257265 C61.6340376,28.8519872 61.9847373,29.1105983 62.1470013,29.4142735 C62.2496746,29.6034615 62.2734304,29.7991453 62.2170607,29.9838675 C62.1135822,30.3395085 61.7379188,30.5591453 61.2354238,30.5591453" id="Fill-29" fill="#1D1D1B"></path>
                    <path d="M65.4951564,24.4160962 C65.3707406,24.4160962 65.252767,24.3418013 65.2036449,24.2196004 C65.126338,24.0385321 65.0180277,23.8879124 64.8775063,23.7701774 C64.5147274,23.470156 64.0677967,23.4847714 63.9417703,23.5785534 C63.7992356,23.6812671 63.5995261,23.6475705 63.4972554,23.5042585 C63.3945822,23.3609466 63.428404,23.1595791 63.570536,23.0572714 C63.9437835,22.7876987 64.7027604,22.7986603 65.2809518,23.2773141 C65.502404,23.4604124 65.6731234,23.6950705 65.7886812,23.9743868 C65.8563248,24.1367799 65.7794205,24.325156 65.6179617,24.3917372 C65.5781003,24.4087885 65.5362257,24.4160962 65.4951564,24.4160962" id="Fill-31" fill="#1D1D1B"></path>
                    <path d="M64.311233,26.590906 C63.9814706,26.590906 63.6585531,26.4902222 63.396837,26.2957564 C63.2563155,26.1914188 63.2261175,25.9937051 63.330804,25.8491752 C63.4354904,25.7082991 63.6319789,25.6766325 63.7753188,25.782188 C64.0177083,25.9644744 64.3724343,26.0018248 64.6808568,25.8816538 C64.9989426,25.7578291 65.215563,25.4858205 65.291662,25.1094744 C65.3242759,24.9381496 65.4929822,24.8252863 65.6637017,24.8606068 C65.8344211,24.8934915 65.9467578,25.0619744 65.9133386,25.236953 C65.7949624,25.8223803 65.4285597,26.2778932 64.9071406,26.4804786 C64.7146785,26.5543675 64.5125531,26.590906 64.311233,26.590906" id="Fill-33" fill="#1D1D1B"></path>
                    <path d="M65.1302838,25.5344979 L65.096462,25.5344979 C64.7123432,25.5332799 64.401505,25.2198611 64.3676832,24.7964209 C64.3386931,24.4091132 64.5698086,23.9621261 65.1508185,23.8878312 C65.5828515,23.8054167 66.3285413,23.5614209 66.8475446,23.3864423 C67.0150429,23.3316346 67.1942178,23.4229808 67.2485743,23.5902457 C67.3049439,23.7579167 67.2159604,23.9377671 67.0500726,23.9950107 C66.1936568,24.2828526 65.621505,24.4488996 65.2470495,24.5195406 C65.0276106,24.5471474 64.9929835,24.6579808 65.0014389,24.7452671 C65.0038548,24.7964209 65.0227789,24.8971047 65.1037096,24.8934509 C65.1218284,24.8934509 65.1387393,24.8971047 65.1588713,24.8995406 C65.3372409,24.8873611 66.1936568,24.7026389 66.9039142,24.5313141 C67.0774521,24.4903098 67.2473663,24.5946474 67.288033,24.7684081 C67.3278944,24.9409509 67.2232079,25.1130876 67.0532937,25.1532799 C65.7443102,25.4687286 65.3082508,25.5344979 65.1302838,25.5344979" id="Fill-35" fill="#1D1D1B"></path>
                    <path d="M67.0255116,24.0190043 C66.9208251,24.0190043 66.8326469,24.1306496 66.8326469,24.2654359 C66.8326469,24.4014402 66.9208251,24.5130855 67.0255116,24.5130855 C67.1306007,24.5130855 67.2183762,24.4014402 67.2183762,24.2654359 C67.2183762,24.1306496 67.1306007,24.0190043 67.0255116,24.0190043 M67.0255116,25.1533205 C66.5705281,25.1533205 66.2009043,24.7550513 66.2009043,24.2654359 C66.2009043,23.7774444 66.5705281,23.3779573 67.0255116,23.3779573 C67.4821056,23.3779573 67.852132,23.7774444 67.852132,24.2654359 C67.852132,24.7550513 67.4821056,25.1533205 67.0255116,25.1533205" id="Fill-37" fill="#1D1D1B"></path>
                    <mask id="mask-2" fill="white">
                        <use xlink:href="#path-1"></use>
                    </mask>
                    <g id="Clip-40"></g>
                    <polygon id="Fill-39" fill="#1D1D1B" mask="url(#mask-2)" points="61.6027525 22.7573718 62.2373135 22.7573718 62.2373135 21.8865385 61.6027525 21.8865385"></polygon>
                    <path d="M57.7852396,22.7648013 L56.6131538,22.7648013 C56.4376026,22.7648013 56.2954706,22.6239252 56.2954706,22.4465107 L56.2954706,20.8911902 C56.2954706,20.7137756 56.4376026,20.5704637 56.6131538,20.5704637 L58.4958997,20.5704637 C58.6702429,20.5704637 58.8135828,20.7137756 58.8135828,20.8911902 C58.8135828,21.0657628 58.6702429,21.2090748 58.4958997,21.2090748 L56.9288238,21.2090748 L56.9288238,22.1257842 L57.7852396,22.1257842 C57.9611934,22.1257842 58.1033254,22.2695021 58.1033254,22.4465107 C58.1033254,22.6239252 57.9611934,22.7648013 57.7852396,22.7648013" id="Fill-42" fill="#1D1D1B" mask="url(#mask-2)"></path>
                    <path d="M57.445532,21.147203 C57.2695782,21.147203 57.1274462,21.005109 57.1274462,20.8293184 L57.1274462,17.7811987 C57.1274462,17.6029722 57.2695782,17.4604722 57.445532,17.4604722 L58.7412284,17.4604722 C58.9171822,17.4604722 59.0593142,17.6029722 59.0593142,17.7811987 C59.0593142,17.9561774 58.9171822,18.0982714 58.7412284,18.0982714 L57.7624099,18.0982714 L57.7624099,20.8293184 C57.7624099,21.005109 57.6214858,21.147203 57.445532,21.147203" id="Fill-43" fill="#1D1D1B" mask="url(#mask-2)"></path>
                    <path d="M52.0202766,43.3372949 C51.8551941,43.3372949 51.7154779,43.2073803 51.7046066,43.0384915 C51.5673063,40.9801581 51.4420851,36.9268248 52.1346264,32.9051581 C53.0953261,27.3350726 56.7432469,24.0835556 56.8974581,23.9475513 C57.0299267,23.8322521 57.2300389,23.8440256 57.3455967,23.977594 C57.4599465,24.1115684 57.4466594,24.3129359 57.3153987,24.4306709 C57.2779531,24.4611197 53.6799597,27.6765043 52.760732,33.0147735 C52.0782568,36.9706709 52.2018673,40.9671667 52.3367518,42.9962692 C52.348831,43.1720598 52.2151545,43.3226795 52.0432271,43.334859 C52.0359795,43.3372949 52.028732,43.3372949 52.0202766,43.3372949" id="Fill-44" fill="#1D1D1B" mask="url(#mask-2)"></path>
                    <path d="M54.1217769,35.3314338 C54.1072818,35.3314338 54.0939947,35.3314338 54.0794997,35.3289979 C53.9059617,35.3050449 53.7843644,35.1442756 53.8073149,34.969703 C53.8604634,34.5689979 53.9192488,34.1573312 53.9856845,33.7505363 C54.9262521,27.9498526 58.1381135,25.4664551 58.2742059,25.3633355 C58.4139221,25.2577799 58.6136317,25.2866047 58.7171102,25.4274808 C58.8221993,25.5699808 58.7932092,25.7701303 58.6534931,25.8756859 C58.6220871,25.8988269 55.5076647,28.320109 54.612998,33.852438 C54.546965,34.2543611 54.486569,34.6587201 54.4346284,35.0533355 C54.4144964,35.2149167 54.277196,35.3314338 54.1217769,35.3314338" id="Fill-45" fill="#1D1D1B" mask="url(#mask-2)"></path>
                    <path d="M52.2117723,46.2017885 C52.1936535,46.2017885 52.1779505,46.2017885 52.1610396,46.1969167 L46.7201617,45.3167457 C46.5623267,45.2899509 46.446769,45.1515107 46.4540165,44.9887115 C46.4600561,44.8283483 46.5840693,44.6964038 46.7427096,44.6813825 L51.4250132,44.2823013 C51.5997591,44.2701218 51.7527624,44.3976004 51.7684653,44.575015 C51.7829604,44.7495876 51.652505,44.9050791 51.4781617,44.9201004 L49.3816139,45.1019808 L52.2262673,45.5607415 L54.7620957,45.3979423 C54.9332178,45.3833269 55.0862211,45.5205491 55.0983003,45.6967457 C55.1091716,45.8717244 54.976703,46.0243739 54.8035677,46.0341175 L52.231099,46.2017885 L52.2117723,46.2017885 Z" id="Fill-46" fill="#1D1D1B" mask="url(#mask-2)"></path>
                    <path d="M51.8474634,45.011406 C51.8293446,45.011406 51.8124337,45.011406 51.7943149,45.0065342 L50.5706911,44.8011068 C50.4792917,44.7840556 50.4011795,44.7308718 50.3528627,44.6533291 C50.3045459,44.5729444 50.2924667,44.4783504 50.3206515,44.3894402 L50.801404,42.9100385 C50.6761828,40.9706581 50.4583545,37.4150598 51.2410871,32.8761709 C52.4840376,25.6618547 57.0238066,22.7306581 57.2154634,22.6117051 C57.3660508,22.5183291 57.5601234,22.5642051 57.6515228,22.7123889 C57.7465459,22.8630085 57.7010475,23.0599103 57.551668,23.1520684 C57.5069749,23.1812991 53.0582026,26.0674316 51.8647769,32.9841624 C51.085668,37.4966624 51.3155756,41.0287137 51.4371729,42.9258718 C51.4395888,42.9668761 51.4351597,43.0046325 51.4226779,43.0436068 L51.0345327,44.2319188 L51.5801102,44.321641 C51.6356746,43.9063205 51.6336614,43.5364701 51.6912389,43.0460427 C51.7105657,42.8710641 51.8671927,42.7472393 52.0431465,42.7655085 C52.2154766,42.7862137 52.3419056,42.9425171 52.3197604,43.1199316 C52.2984205,43.3022179 52.2001762,44.5424957 52.157899,44.7552308 C52.1293116,44.9054444 51.995635,45.011406 51.8474634,45.011406" id="Fill-47" fill="#1D1D1B" mask="url(#mask-2)"></path>
                    <path d="M51.9178449,45.010188 C51.6931716,45.0049103 51.5035281,44.8790556 51.4874224,44.7134145 C51.4660825,44.5380299 51.6460627,44.3841624 51.8892574,44.3732009 L54.183099,44.2623675 C54.4250858,44.2485641 54.6396931,44.3837564 54.6590198,44.5579231 C54.6783465,44.7357436 54.4971584,44.8867692 54.2555743,44.8981368 L51.9629406,45.011406 C51.9464323,45.011 51.931132,45.010594 51.9178449,45.010188" id="Fill-48" fill="#1D1D1B" mask="url(#mask-2)"></path>
                    <path d="M61.4257116,37.5595897 C61.0693749,37.5595897 52.6851967,37.5388846 52.6851967,35.8244188 C52.6851967,35.2791838 53.3894145,34.8991838 54.9657512,34.5898248 C56.2739294,34.3344615 58.0729261,34.1607009 60.0374079,34.1062991 C60.2153749,34.1123889 60.3575069,34.2435214 60.3623386,34.4172821 C60.3671703,34.5955085 60.228662,34.7436923 60.0539162,34.7473462 C55.7090251,34.8675171 53.5726158,35.4943547 53.3314343,35.8244188 C53.62053,36.2287778 56.4772627,36.9185427 61.4257116,36.9185427 C66.3765762,36.9185427 69.2333089,36.2287778 69.5224046,35.8244188 C69.2562594,35.4590342 66.7510317,34.7692692 61.8339888,34.7290769 C61.658035,34.7290769 61.5171109,34.5833291 61.5171109,34.4087564 C61.5195267,34.2313419 61.6628667,34.0892479 61.8364046,34.0892479 L61.8376125,34.0892479 C64.0187149,34.1062991 66.0528535,34.2638205 67.570002,34.5301453 C69.8714937,34.9345043 70.1654211,35.4346752 70.1654211,35.8244188 C70.1654211,37.5388846 61.7836587,37.5595897 61.4257116,37.5595897" id="Fill-49" fill="#1D1D1B" mask="url(#mask-2)"></path>
                    <path d="M61.0488403,49.4076325 C58.6917842,49.4076325 57.3336785,48.7215214 56.3133881,48.0354103 C53.2436587,45.9068419 52.298662,36.3906026 52.7548535,35.5477821 C52.8402132,35.3910726 53.03187,35.3338291 53.1848733,35.4178675 C53.3398898,35.5039359 53.3954541,35.6971838 53.3125102,35.8534872 C53.077771,36.4632735 53.8230581,45.5337436 56.6701274,47.5060085 C57.3324706,47.9505598 58.7219822,48.8867564 61.5968337,48.7564359 C61.7703716,48.7483162 61.9209591,48.8867564 61.9290119,49.0605171 C61.9350515,49.2375256 61.800167,49.3857094 61.6258238,49.395453 C61.4269195,49.4039786 61.2340548,49.4076325 61.0488403,49.4076325" id="Fill-50" fill="#1D1D1B" mask="url(#mask-2)"></path>
                    <path d="M69.806266,36.6477115 C69.8038502,36.6477115 69.8002264,36.6452756 69.7978106,36.6452756 C69.6222594,36.6404038 69.4849591,36.4922201 69.4922066,36.3176474 C69.500662,36.0139722 69.4958304,35.8341218 69.4777116,35.7854038 C69.3935597,35.6335662 69.4487215,35.4382885 69.6029327,35.3558739 C69.7571439,35.2718355 69.9496059,35.3290791 70.0349657,35.4833526 C70.1303914,35.6591432 70.1388469,35.8804038 70.1243518,36.3391645 C70.1195201,36.5117073 69.9773881,36.6477115 69.806266,36.6477115" id="Fill-51" fill="#1D1D1B" mask="url(#mask-2)"></path>
                    <path d="M68.800833,42.8018846 C68.7722455,42.8018846 68.7452686,42.7970128 68.7178891,42.7897051 C68.5491828,42.744641 68.4493281,42.5696624 68.4936185,42.3975256 C68.8576053,41.0338291 69.1330112,39.5706667 69.3186284,38.0551325 C69.339163,37.8801538 69.4978033,37.7551111 69.6717439,37.7770342 C69.8452818,37.7989573 69.9688924,37.9593205 69.9475525,38.1338932 C69.7595195,39.6798761 69.4764634,41.1698333 69.1068396,42.5639786 C69.0693941,42.7060726 68.9405492,42.8018846 68.800833,42.8018846" id="Fill-52" fill="#1D1D1B" mask="url(#mask-2)"></path>
                    <path d="M61.4257116,49.3955342 C61.2549921,49.3955342 61.1112495,49.258312 61.1088337,49.0833333 C61.1056125,48.9051068 61.2449261,48.759359 61.4208799,48.7565171 C61.4522858,48.7540812 64.5856323,48.6801923 65.8334145,47.5349145 C65.8442858,47.523141 65.856365,47.5133974 65.8672363,47.5060897 C66.5944046,47.001047 67.2676191,45.9527991 67.8683584,44.387735 C67.930365,44.2249359 68.1143716,44.1413034 68.2782462,44.2066667 C68.4393023,44.2712179 68.5226488,44.4555342 68.458629,44.6195513 C67.8160152,46.2930128 67.0727413,47.4391026 66.2441076,48.0208761 C64.8147347,49.3175855 61.5702594,49.3943162 61.4317512,49.3955342 L61.4257116,49.3955342 Z" id="Fill-53" fill="#1D1D1B" mask="url(#mask-2)"></path>
                    <path d="M69.548697,37.7649359 L69.6654627,38.0637393 L69.5523208,37.7649359 L69.548697,37.7649359 Z M68.8009941,42.8953419 C68.6705386,42.8953419 68.5493439,42.8125214 68.5006244,42.6854487 C68.4418389,42.5185897 68.5263934,42.3354915 68.6922812,42.274594 C69.9400634,41.8158333 71.3935947,40.4570085 71.8634759,39.3080769 C72.0426508,38.8736752 72.0680172,38.5115385 71.9379644,38.2301923 C71.7958323,37.8887607 71.0159182,37.8863248 69.9847564,38.213953 C69.9376475,38.2772863 69.8704066,38.3247863 69.7798125,38.3597009 C69.615938,38.4254701 69.4331393,38.3442735 69.3683142,38.1814744 C69.3127498,38.0345085 69.3683142,37.8741453 69.4919248,37.7941667 C69.5571525,37.6934829 69.6594231,37.6508547 69.737938,37.6240598 C71.2337465,37.1385043 72.2210205,37.2594872 72.5173637,37.9711752 C72.7223076,38.4084188 72.6989545,38.9475641 72.4509281,39.5549145 C71.9113901,40.8662393 70.3245848,42.3549786 68.9093043,42.8758547 C68.8730667,42.8868162 68.836829,42.8953419 68.8009941,42.8953419 L68.8009941,42.8953419 Z" id="Fill-54" fill="#1D1D1B" mask="url(#mask-2)"></path>
                    <path d="M68.1650238,44.8089829 C68.0301393,44.8089829 67.9037102,44.7204786 67.8626409,44.5844744 C67.8119083,44.4143675 67.9049182,44.2345171 68.0724165,44.1849872 C69.6664693,43.6892821 74.1164495,41.5002222 73.7009248,38.0221667 C73.5688587,37.3993889 73.2926475,36.9706709 72.857796,36.7144957 C72.0017828,36.209453 70.713334,36.5033846 70.0232086,36.7266752 C69.8557102,36.779047 69.6777432,36.6864829 69.6245947,36.518 C69.5714462,36.351547 69.665664,36.1680427 69.8307465,36.1156709 C70.7986937,35.8075299 72.1632416,35.5655641 73.1770898,36.161953 C73.7709842,36.5119103 74.1575188,37.0969316 74.3238092,37.9032137 C74.327433,37.9129573 74.327433,37.920265 74.3298488,37.9300085 C74.8114066,41.8485556 69.985763,44.2588761 68.257631,44.7943675 C68.2262251,44.8053291 68.1952218,44.8089829 68.1650238,44.8089829" id="Fill-55" fill="#1D1D1B" mask="url(#mask-2)"></path>
                    <path d="M55.5017056,38.692688 C55.3366231,38.692688 55.1961017,38.5615556 55.1852304,38.3938846 L55.1441611,37.6870684 C55.1357056,37.5112778 55.2681743,37.3606581 55.4429201,37.3509145 C55.6148475,37.3362991 55.7678508,37.4735214 55.7779168,37.6509359 L55.8197914,38.3561282 C55.8282469,38.5323248 55.6945703,38.6841624 55.5210323,38.692688 L55.5017056,38.692688 Z" id="Fill-56" fill="#FEFEFE" mask="url(#mask-2)"></path>
                    <path d="M57.1071531,46.3695 C56.981932,46.3695 56.8651663,46.2931752 56.8132257,46.1701624 C55.6487901,43.3225983 55.3246647,40.0381966 55.3101696,39.8997564 C55.2936614,39.7223419 55.4200904,39.5668504 55.5944337,39.5497991 C55.7715954,39.5355897 55.9245987,39.6626624 55.9415096,39.837641 C55.9435228,39.8705256 56.2736878,43.1711667 57.3998726,45.9261667 C57.4675162,46.0901838 57.3890013,46.2761239 57.2275426,46.3427051 C57.1864733,46.3597564 57.1470145,46.3695 57.1071531,46.3695" id="Fill-57" fill="#FEFEFE" mask="url(#mask-2)"></path>
                    <path d="M67.9047168,45.4768248 C67.8648554,45.4768248 67.8266046,45.4695171 67.7879512,45.4524658 C67.6256871,45.3883205 67.5443538,45.2011624 67.6111921,45.0383632 C67.6216607,45.0127863 68.5875947,42.5626795 68.8275683,41.031312 C68.8537399,40.8563333 69.0164066,40.7385983 69.1875287,40.7653932 C69.360664,40.792188 69.4802482,40.9562051 69.4536739,41.1307778 C69.2032317,42.7348162 68.2409215,45.1731496 68.1986442,45.2750513 C68.1503274,45.3992821 68.0311459,45.4768248 67.9047168,45.4768248" id="Fill-58" fill="#1D1D1B" mask="url(#mask-2)"></path>
                    <path d="M69.5715267,38.9852799 C69.5598502,38.9852799 69.5473683,38.982844 69.5340812,38.982844 C69.3609459,38.9621389 69.2357248,38.8029936 69.2562594,38.6296389 L69.5441472,36.0979295 C69.5654871,35.9229509 69.7209063,35.7954722 69.8944442,35.8173953 C70.0699954,35.8364765 70.1944112,35.9968397 70.1750845,36.1718184 L69.8859888,38.7010919 C69.86787,38.863891 69.7309723,38.9852799 69.5715267,38.9852799" id="Fill-59" fill="#1D1D1B" mask="url(#mask-2)"></path>
                    <path d="M52.0877188,47.2801603 C52.0708079,47.2801603 52.055105,47.2789423 52.0381941,47.2765064 L46.6271116,46.4044551 C46.4636396,46.3792842 46.3468739,46.2286645 46.3609663,46.0634295 L46.4539762,44.9741774 C46.4696792,44.7967628 46.6238904,44.6660363 46.7982337,44.6814637 C46.9729795,44.6960791 47.1018244,44.8527885 47.0873294,45.0265491 L47.0188805,45.8206517 L52.1034218,46.6387073 L55.2983723,46.455609 C55.4715076,46.4434295 55.623303,46.5794338 55.6341743,46.7544124 C55.6442403,46.9314209 55.5089531,47.0820406 55.3342073,47.0917842 L52.105435,47.2801603 L52.0877188,47.2801603 Z" id="Fill-60" fill="#1D1D1B" mask="url(#mask-2)"></path>
                    <path d="M61.4677875,50.4322927 C61.3079393,50.4322927 50.3174706,48.3560962 41.1284145,46.6099637 C40.9705795,46.5819509 40.8598535,46.4410748 40.8707248,46.2807115 C40.8767644,46.1203483 41.0031934,45.9916517 41.1622363,45.9794722 L46.3852858,45.5629338 C46.5588238,45.5483184 46.7126323,45.6806688 46.72753,45.8568654 C46.7404145,46.031844 46.6107644,46.1873355 46.4348106,46.2019509 L43.5865333,46.4264594 C50.5860317,47.7548355 60.8634244,49.6954338 61.4774508,49.7924637 C61.9231736,49.7413098 70.431365,48.4933184 76.3336686,47.6249209 C75.3693452,47.4840449 74.1851802,47.3115021 73.0014178,47.1381474 C71.6272066,46.9388098 70.2546059,46.7362244 69.2234442,46.5819509 C68.7080647,46.507656 68.2792528,46.4435107 67.9792858,46.3984466 C67.8013188,46.3716517 67.6640185,46.3501346 67.5557083,46.3257756 L67.5545003,46.3257756 C67.2927842,46.2685321 67.2231274,46.1970791 67.2380251,45.9831261 C67.2497017,45.8170791 67.3898205,45.6871645 67.5545003,45.6871645 C67.5834904,45.6871645 67.609662,45.6891944 67.6350284,45.6965021 C68.0747116,45.7732329 75.661662,46.8819722 78.5844277,47.3066303 C78.7410548,47.3309893 78.8554046,47.4645577 78.8554046,47.623703 C78.8554046,47.7840662 78.7410548,47.9176346 78.5844277,47.9407756 C72.2633782,48.8721004 61.6304541,50.4322927 61.4677875,50.4322927" id="Fill-61" fill="#1D1D1B" mask="url(#mask-2)"></path>
                    <path d="M61.508897,53.669844 C61.4871545,53.669844 61.4666198,53.6661902 61.4460851,53.6621303 L41.3297749,49.5970235 C41.1803954,49.5677927 41.0732931,49.4342244 41.074501,49.2811688 L41.090204,47.496062 C41.0914119,47.3214893 41.2335439,47.1806132 41.4066792,47.1806132 L41.409095,47.1806132 C41.5850488,47.1818312 41.724765,47.3263611 41.724765,47.5037756 L41.71027,49.0225577 L61.5113129,53.0223013 L78.0163426,50.0513184 L78.0163426,48.7456774 C78.0163426,48.5674509 78.1596825,48.4253568 78.3328178,48.4253568 C78.5087716,48.4253568 78.6509036,48.5674509 78.6509036,48.7456774 L78.6509036,50.3233269 C78.6509036,50.4751645 78.5401776,50.607109 78.390798,50.6351218 L61.5632535,53.6621303 C61.5451347,53.6661902 61.5282238,53.669844 61.508897,53.669844" id="Fill-62" fill="#1D1D1B" mask="url(#mask-2)"></path>
                    <path d="M61.4200343,53.2805064 C61.4127868,53.2813184 61.4055393,53.2821303 61.3994997,53.2813184 C61.2263644,53.2947158 61.0830244,53.2143312 61.0818165,53.1039038 L61.094701,50.4999295 C61.0942983,50.3882842 61.2372356,50.2892244 61.409163,50.2754209 C61.5847142,50.2632415 61.7268462,50.344844 61.7284568,50.4564893 L61.7139617,53.0564038 C61.7151696,53.1656132 61.5851168,53.2618312 61.4200343,53.2805064" id="Fill-63" fill="#FEFEFE" mask="url(#mask-2)"></path>
                    <path d="M52.3560785,47.1804509 L52.3439993,47.1804509 C52.1684482,47.1739551 52.0319531,47.0391688 52.0379927,46.8779936 L52.079062,45.8435491 C52.0851017,45.6823739 52.2260257,45.5565192 52.4080191,45.563015 C52.5823624,45.5695107 52.7184548,45.7018611 52.7128178,45.8630363 L52.6717485,46.8991047 C52.6669168,47.0558141 52.5235769,47.1804509 52.3560785,47.1804509" id="Fill-64" fill="#1D1D1B" mask="url(#mask-2)"></path>
                    <path d="M51.8624013,4.03904274 C51.7673782,4.03904274 51.6743683,3.99682051 51.6119591,3.91521795 C51.5032462,3.77677778 51.5265993,3.57500427 51.6671208,3.46457692 C51.8648172,3.3107094 56.6385201,-0.334611111 65.7466455,1.54021795 C65.9189756,1.57553846 66.0301043,1.74158547 65.9938667,1.91412821 C65.9600449,2.08910684 65.7913386,2.19953419 65.6214244,2.16543162 C56.7951472,0.350282051 52.1019723,3.93348718 52.0560713,3.97002564 C51.9984937,4.01468376 51.9296422,4.03904274 51.8624013,4.03904274" id="Fill-65" fill="#FEFEFE" mask="url(#mask-2)"></path>
                    <path d="M69.2620574,3.60431624 C69.1871663,3.60431624 69.110262,3.57508547 69.0502686,3.51946581 C68.5369023,3.04933761 67.1377274,2.55525641 66.6412719,2.40707265 C66.4729683,2.35470085 66.3779452,2.17769231 66.4282752,2.00880342 C66.4802158,1.83991453 66.655767,1.74532051 66.8232653,1.79485043 C66.9029881,1.81961538 68.7523149,2.38271368 69.476262,3.04690171 C69.6043017,3.1658547 69.6151729,3.36762821 69.4980046,3.49876068 C69.4343875,3.56777778 69.3490277,3.60431624 69.2620574,3.60431624" id="Fill-66" fill="#FEFEFE" mask="url(#mask-2)"></path>
                    <path d="M61.2210495,28.6553291 C61.0463036,28.6553291 60.9041716,28.5120171 60.9041716,28.3370385 L60.9041716,26.2194316 C60.9041716,26.044453 61.0463036,25.902359 61.2210495,25.902359 C61.3945875,25.902359 61.5379274,26.044453 61.5379274,26.2194316 L61.5379274,28.3370385 C61.5379274,28.5120171 61.3945875,28.6553291 61.2210495,28.6553291" id="Fill-67" fill="#FEFEFE" mask="url(#mask-2)"></path>
                    <polygon id="Fill-68" fill="#1D1D1B" mask="url(#mask-2)" points="60.944033 22.6116239 61.5785941 22.6116239 61.5785941 21.8240171 60.944033 21.8240171"></polygon>
                    <path d="M58.710064,21.2839786 C58.5800112,21.2839786 58.4572059,21.2295769 58.411305,21.1443205 C58.3549353,21.0359231 58.441503,20.9177821 58.6065855,20.8808376 C58.6931531,20.8601325 60.7212521,20.4058376 61.9062224,20.5775684 C62.0773446,20.6027393 62.1844469,20.7135726 62.1470013,20.8264359 C62.1083479,20.9368632 61.9400442,21.0083162 61.77013,20.9831453 C60.758295,20.8357735 58.8340772,21.2681453 58.8159584,21.2722051 C58.7797208,21.2791068 58.7450937,21.2839786 58.710064,21.2839786" id="Fill-69" fill="#FEFEFE" mask="url(#mask-2)"></path>
                    <path d="M63.39273,21.4376026 C63.3536739,21.4315128 63.3150205,21.4205513 63.2787828,21.4035 C63.2751591,21.402688 62.8942614,21.2333932 62.6699908,21.1461068 C62.5113505,21.0835855 62.4404858,20.9504231 62.5133637,20.8493333 C62.5850337,20.7474316 62.7706508,20.715359 62.930499,20.7770684 C63.1712779,20.8728803 63.5545914,21.0425812 63.570697,21.0498889 C63.7261162,21.117688 63.784499,21.2528803 63.7043736,21.3515342 C63.6431723,21.426235 63.5179512,21.4570897 63.39273,21.4376026" id="Fill-70" fill="#FEFEFE" mask="url(#mask-2)"></path>
                    <path d="M68.0915017,36.2700662 C68.0745908,36.2700662 68.0600957,36.2700662 68.0447954,36.2676303 C61.5026964,35.2912415 54.6264059,36.1957714 54.5575545,36.205515 C54.3852244,36.2323098 54.2241683,36.1048312 54.2000099,35.9310705 C54.1782673,35.7560919 54.2998647,35.5961346 54.4721947,35.5717756 C54.543462,35.5620321 61.5039043,34.6441047 68.1357921,35.635109 C68.3097327,35.6594679 68.4289142,35.8230791 68.4043531,35.9980577 C68.3805974,36.1547671 68.2457129,36.2700662 68.0915017,36.2700662" id="Fill-71" fill="#1D1D1B" mask="url(#mask-2)"></path>
                    <path d="M60.9633195,32.9550128 C60.7020059,33.5319145 60.5055175,34.2192436 60.6730158,34.5350983 C60.7140851,34.6114231 60.8006528,34.7169786 61.0764614,34.7437735 C61.3220719,34.6926197 61.3703888,34.5748846 61.3897155,34.5326624 C61.5282238,34.2046282 61.270534,33.519735 60.9633195,32.9550128 M61.0933723,35.3848205 L61.0752535,35.3848205 C60.4998805,35.348688 60.2345406,35.0657179 60.1129432,34.8334957 C59.6422568,33.9435812 60.5598739,32.3237094 60.6657683,32.142641 C60.7201248,32.048047 60.8187716,31.9887735 60.9270818,31.9847137 C61.0341842,31.9859316 61.1380653,32.0322137 61.1992667,32.1235598 C61.320864,32.3005684 62.3576627,33.8648205 61.9735439,34.7815299 C61.8785208,35.0060385 61.6582766,35.2926624 61.1453129,35.3787308 C61.128402,35.3823846 61.1114911,35.3848205 61.0933723,35.3848205" id="Fill-72" fill="#1D1D1B" mask="url(#mask-2)"></path>
                    <path d="M40.8979432,66.1098098 C39.509237,66.1098098 38.379831,67.2477799 38.379831,68.646797 C38.379831,70.0454081 39.509237,71.1833782 40.8979432,71.1833782 C42.2854416,71.1833782 43.4136396,70.0454081 43.4136396,68.646797 C43.4136396,67.2477799 42.2854416,66.1098098 40.8979432,66.1098098 M40.8979432,71.8694893 C39.1335736,71.8694893 37.7005769,70.4241902 37.7005769,68.646797 C37.7005769,66.8702158 39.1335736,65.4261346 40.8979432,65.4261346 C42.6574812,65.4261346 44.0904779,66.8702158 44.0904779,68.646797 C44.0904779,70.4241902 42.6574812,71.8694893 40.8979432,71.8694893" id="Fill-73" fill="#1D1D1B" mask="url(#mask-2)"></path>
                    <path d="M84.9548007,66.1098098 C83.5673023,66.1098098 82.4374937,67.2477799 82.4374937,68.646797 C82.4374937,70.0454081 83.5673023,71.1833782 84.9548007,71.1833782 C86.3418964,71.1833782 87.470497,70.0454081 87.470497,68.646797 C87.470497,67.2477799 86.3418964,66.1098098 84.9548007,66.1098098 M84.9548007,71.8694893 C83.1940548,71.8694893 81.7586422,70.4241902 81.7586422,68.646797 C81.7586422,66.8702158 83.1940548,65.4261346 84.9548007,65.4261346 C86.7167545,65.4261346 88.1505564,66.8702158 88.1505564,68.646797 C88.1505564,70.4241902 86.7167545,71.8694893 84.9548007,71.8694893" id="Fill-74" fill="#1D1D1B" mask="url(#mask-2)"></path>
                    <path d="M2.61704092,71.8692863 C2.43021584,71.8692863 2.27842046,71.7137949 2.27842046,71.5242009 L2.27842046,65.7677692 C2.27842046,65.5793932 2.43021584,65.4263376 2.61704092,65.4263376 C2.80467129,65.4263376 2.95767459,65.5793932 2.95767459,65.7677692 L2.95767459,71.5242009 C2.95767459,71.7137949 2.80467129,71.8692863 2.61704092,71.8692863" id="Fill-75" fill="#1D1D1B" mask="url(#mask-2)"></path>
                    <path d="M28.8971696,71.8692863 C28.7091366,71.8692863 28.5573413,71.7137949 28.5573413,71.5242009 L28.5573413,65.7677692 C28.5573413,65.5793932 28.7091366,65.4263376 28.8971696,65.4263376 C29.0835921,65.4263376 29.2365954,65.5793932 29.2365954,65.7677692 L29.2365954,71.5242009 C29.2365954,71.7137949 29.0835921,71.8692863 28.8971696,71.8692863" id="Fill-76" fill="#1D1D1B" mask="url(#mask-2)"></path>
                    <path d="M9.45250363,71.8692863 L0.339546535,71.8692863 C0.151513531,71.8692863 0.000120792079,71.7137949 0.000120792079,71.5242009 C0.000120792079,71.3350128 0.151513531,71.1835812 0.339546535,71.1835812 L9.11307789,71.1835812 L9.11307789,70.118688 C9.11307789,69.9315299 9.26487327,69.7748205 9.45250363,69.7748205 C9.63932871,69.7748205 9.79072145,69.9315299 9.79072145,70.118688 L9.79072145,71.5242009 C9.79072145,71.7137949 9.63932871,71.8692863 9.45250363,71.8692863" id="Fill-77" fill="#1D1D1B" mask="url(#mask-2)"></path>
                    <path d="M4.89546139,66.1098098 L0.339586799,66.1098098 C0.151553795,66.1098098 0.000161056106,65.9567543 0.000161056106,65.7675662 C0.000161056106,65.5791902 0.151553795,65.4261346 0.339586799,65.4261346 L4.89546139,65.4261346 C5.08349439,65.4261346 5.23488713,65.5791902 5.23488713,65.7675662 C5.23488713,65.9567543 5.08349439,66.1098098 4.89546139,66.1098098" id="Fill-78" fill="#1D1D1B" mask="url(#mask-2)"></path>
                    <path d="M50.3987234,71.8692863 L45.8416409,71.8692863 C45.6548158,71.8692863 45.5018125,71.7137949 45.5018125,71.5242009 C45.5018125,71.3350128 45.6548158,71.1835812 45.8416409,71.1835812 L50.3987234,71.1835812 C50.5863538,71.1835812 50.7381492,71.3350128 50.7381492,71.5242009 C50.7381492,71.7137949 50.5863538,71.8692863 50.3987234,71.8692863" id="Fill-79" fill="#1D1D1B" mask="url(#mask-2)"></path>
                    <path d="M13.6544574,71.8692863 C13.5807743,71.8692863 13.5062858,71.8449274 13.4438766,71.7953974 C13.2965102,71.6760385 13.2727545,71.4600556 13.3907281,71.3118718 L17.9466026,65.5538162 C18.0645762,65.4056325 18.2775729,65.3824915 18.4233287,65.5002265 C18.5715003,65.6171496 18.5944508,65.8319145 18.4764772,65.9813162 L13.9218106,71.7409957 C13.854167,71.8246282 13.7543122,71.8692863 13.6544574,71.8692863" id="Fill-80" fill="#1D1D1B" mask="url(#mask-2)"></path>
                    <path d="M22.7685017,71.8692863 C22.6682442,71.8692863 22.5695974,71.8246282 22.5023564,71.7409957 L17.9464818,65.9813162 C17.8281056,65.8319145 17.8526667,65.6171496 17.9992277,65.5002265 C18.1461914,65.3824915 18.3607987,65.4056325 18.4763564,65.5538162 L23.032231,71.3118718 C23.1514125,71.4600556 23.1260462,71.6760385 22.9790825,71.7953974 C22.9166733,71.8449274 22.844198,71.8692863 22.7685017,71.8692863" id="Fill-81" fill="#1D1D1B" mask="url(#mask-2)"></path>
                    <path d="M15.9340455,71.8692863 L11.376963,71.8692863 C11.18893,71.8692863 11.0371347,71.7162308 11.0371347,71.5266368 C11.0371347,71.3350128 11.18893,71.1835812 11.376963,71.1835812 L15.9340455,71.1835812 C16.1208706,71.1835812 16.2738739,71.3350128 16.2738739,71.5266368 C16.2738739,71.7162308 16.1208706,71.8692863 15.9340455,71.8692863" id="Fill-82" fill="#1D1D1B" mask="url(#mask-2)"></path>
                    <path d="M18.2114997,66.1098098 L13.6544172,66.1098098 C13.4675921,66.1098098 13.3157967,65.9567543 13.3157967,65.7675662 C13.3157967,65.5791902 13.4675921,65.4261346 13.6544172,65.4261346 L18.2114997,65.4261346 C18.400338,65.4261346 18.5509254,65.5791902 18.5509254,65.7675662 C18.5509254,65.9567543 18.400338,66.1098098 18.2114997,66.1098098" id="Fill-83" fill="#1D1D1B" mask="url(#mask-2)"></path>
                    <path d="M114.634582,66.1098098 L110.07911,66.1098098 C109.891077,66.1098098 109.739282,65.9567543 109.739282,65.7675662 C109.739282,65.5791902 109.891077,65.4261346 110.07911,65.4261346 L114.634582,65.4261346 C114.821407,65.4261346 114.974411,65.5791902 114.974411,65.7675662 C114.974411,65.9567543 114.821407,66.1098098 114.634582,66.1098098" id="Fill-84" fill="#1D1D1B" mask="url(#mask-2)"></path>
                    <path d="M25.0457545,71.8692863 L20.4886719,71.8692863 C20.3022495,71.8692863 20.1500515,71.7162308 20.1500515,71.5266368 C20.1500515,71.3350128 20.3022495,71.1835812 20.4886719,71.1835812 L25.0457545,71.1835812 C25.2349954,71.1835812 25.3855828,71.3350128 25.3855828,71.5266368 C25.3855828,71.7162308 25.2349954,71.8692863 25.0457545,71.8692863" id="Fill-85" fill="#1D1D1B" mask="url(#mask-2)"></path>
                    <path d="M20.4899201,68.9917201 L15.9328376,68.9917201 C15.7460125,68.9917201 15.5930092,68.8346047 15.5930092,68.6466346 C15.5930092,68.4574466 15.7460125,68.304391 15.9328376,68.304391 L20.4899201,68.304391 C20.6779531,68.304391 20.8293459,68.4574466 20.8293459,68.6466346 C20.8293459,68.8346047 20.6779531,68.9917201 20.4899201,68.9917201" id="Fill-86" fill="#1D1D1B" mask="url(#mask-2)"></path>
                    <path d="M60.0233558,71.8692863 C59.9484647,71.8692863 59.8739762,71.8449274 59.811567,71.7953974 C59.6670191,71.6760385 59.6416528,71.4600556 59.7584185,71.3118718 L64.3142931,65.5538162 C64.4298508,65.4056325 64.6444581,65.3824915 64.7914218,65.5002265 C64.9391908,65.6171496 64.9621413,65.8319145 64.8453756,65.9813162 L60.2907089,71.7409957 C60.2222601,71.8246282 60.1232106,71.8692863 60.0233558,71.8692863" id="Fill-87" fill="#1D1D1B" mask="url(#mask-2)"></path>
                    <path d="M69.1362323,71.8692863 C69.0363776,71.8692863 68.9377307,71.8246282 68.8700871,71.7409957 L64.3142125,65.9813162 C64.1958363,65.8319145 64.2216053,65.6171496 64.3669584,65.5002265 C64.5131168,65.3824915 64.7285294,65.4056325 64.845295,65.5538162 L69.4023776,71.3118718 C69.5191432,71.4600556 69.4953875,71.6760385 69.3480211,71.7953974 C69.2868198,71.8449274 69.2099155,71.8692863 69.1362323,71.8692863" id="Fill-88" fill="#1D1D1B" mask="url(#mask-2)"></path>
                    <path d="M62.3031452,71.8692863 L57.7460627,71.8692863 C57.5580297,71.8692863 57.4078449,71.7162308 57.4078449,71.5266368 C57.4078449,71.3350128 57.5580297,71.1835812 57.7460627,71.1835812 L62.3031452,71.1835812 C62.4895677,71.1835812 62.641363,71.3350128 62.641363,71.5266368 C62.641363,71.7162308 62.4895677,71.8692863 62.3031452,71.8692863" id="Fill-89" fill="#1D1D1B" mask="url(#mask-2)"></path>
                    <path d="M64.5805993,66.1098098 L60.0235168,66.1098098 C59.8366917,66.1098098 59.6836884,65.9567543 59.6836884,65.7675662 C59.6836884,65.5791902 59.8366917,65.4261346 60.0235168,65.4261346 L64.5805993,65.4261346 C64.7682297,65.4261346 64.9188172,65.5791902 64.9188172,65.7675662 C64.9188172,65.9567543 64.7682297,66.1098098 64.5805993,66.1098098" id="Fill-90" fill="#1D1D1B" mask="url(#mask-2)"></path>
                    <path d="M71.4148541,71.8692863 L66.8589795,71.8692863 C66.6713492,71.8692863 66.5195538,71.7162308 66.5195538,71.5266368 C66.5195538,71.3350128 66.6713492,71.1835812 66.8589795,71.1835812 L71.4148541,71.1835812 C71.6028871,71.1835812 71.7542799,71.3350128 71.7542799,71.5266368 C71.7542799,71.7162308 71.6028871,71.8692863 71.4148541,71.8692863" id="Fill-91" fill="#1D1D1B" mask="url(#mask-2)"></path>
                    <path d="M66.8588185,68.9917201 L62.3033465,68.9917201 C62.1153135,68.9917201 61.9623102,68.8346047 61.9623102,68.6466346 C61.9623102,68.4574466 62.1153135,68.304391 62.3033465,68.304391 L66.8588185,68.304391 C67.0456436,68.304391 67.1986469,68.4574466 67.1986469,68.6466346 C67.1986469,68.8346047 67.0456436,68.9917201 66.8588185,68.9917201" id="Fill-92" fill="#1D1D1B" mask="url(#mask-2)"></path>
                    <path d="M110.078949,71.8692863 C110.004058,71.8692863 109.92957,71.8449274 109.86555,71.7953974 C109.719794,71.6760385 109.696038,71.4600556 109.812804,71.3118718 L114.368276,65.5538162 C114.485042,65.4056325 114.700051,65.3824915 114.846613,65.5002265 C114.993576,65.6171496 115.017735,65.8319145 114.900969,65.9813162 L110.343484,71.7409957 C110.276243,71.8246282 110.178804,71.8692863 110.078949,71.8692863" id="Fill-93" fill="#1D1D1B" mask="url(#mask-2)"></path>
                    <path d="M119.191826,71.8692863 C119.091971,71.8692863 118.991714,71.8246282 118.924473,71.7409957 L114.368598,65.9813162 C114.252638,65.8319145 114.277199,65.6171496 114.422552,65.5002265 C114.56871,65.3824915 114.784123,65.4056325 114.900888,65.5538162 L119.456763,71.3118718 C119.573529,71.4600556 119.54937,71.6760385 119.402407,71.7953974 C119.339997,71.8449274 119.265106,71.8692863 119.191826,71.8692863" id="Fill-94" fill="#1D1D1B" mask="url(#mask-2)"></path>
                    <path d="M112.35596,71.8692863 L107.800488,71.8692863 C107.613663,71.8692863 107.46066,71.7162308 107.46066,71.5266368 C107.46066,71.3350128 107.613663,71.1835812 107.800488,71.1835812 L112.35596,71.1835812 C112.543993,71.1835812 112.695789,71.3350128 112.695789,71.5266368 C112.695789,71.7162308 112.543993,71.8692863 112.35596,71.8692863" id="Fill-95" fill="#1D1D1B" mask="url(#mask-2)"></path>
                    <path d="M121.468837,71.8692863 L116.913365,71.8692863 C116.72654,71.8692863 116.573537,71.7162308 116.573537,71.5266368 C116.573537,71.3350128 116.72654,71.1835812 116.913365,71.1835812 L121.468837,71.1835812 C121.65687,71.1835812 121.808665,71.3350128 121.808665,71.5266368 C121.808665,71.7162308 121.65687,71.8692863 121.468837,71.8692863" id="Fill-96" fill="#1D1D1B" mask="url(#mask-2)"></path>
                    <path d="M116.913204,68.9917201 L112.356121,68.9917201 C112.169699,68.9917201 112.017904,68.8346047 112.017904,68.6466346 C112.017904,68.4574466 112.169699,68.304391 112.356121,68.304391 L116.913204,68.304391 C117.099626,68.304391 117.251824,68.4574466 117.251824,68.6466346 C117.251824,68.8346047 117.099626,68.9917201 116.913204,68.9917201" id="Fill-97" fill="#1D1D1B" mask="url(#mask-2)"></path>
                    <path d="M33.8372033,71.8692863 L26.6186686,71.8692863 C26.4306356,71.8692863 26.2792429,71.7137949 26.2792429,71.5242009 C26.2792429,71.3350128 26.4306356,71.1835812 26.6186686,71.1835812 L33.8372033,71.1835812 C34.7970977,71.1835812 35.3917974,70.7642009 35.3917974,70.0866154 C35.3917974,69.4090299 34.7970977,68.9916795 33.8372033,68.9916795 C33.6503782,68.9916795 33.4973749,68.8345641 33.4973749,68.647 C33.4973749,68.457406 33.6503782,68.3043504 33.8372033,68.3043504 C34.7970977,68.3043504 35.3917974,67.8829402 35.3917974,67.2090085 C35.3917974,66.5314231 34.7970977,66.1096068 33.8372033,66.1096068 L26.6186686,66.1096068 C26.4306356,66.1096068 26.2792429,65.9569573 26.2792429,65.7677692 C26.2792429,65.5793932 26.4306356,65.4263376 26.6186686,65.4263376 L33.8372033,65.4263376 C35.3797182,65.4263376 36.0710515,66.319906 36.0710515,67.2090085 C36.0710515,67.7542436 35.8061142,68.3067863 35.2412099,68.647 C35.8061142,68.9888376 36.0710515,69.5381325 36.0710515,70.0866154 C36.0710515,70.9745 35.3797182,71.8692863 33.8372033,71.8692863" id="Fill-98" fill="#1D1D1B" mask="url(#mask-2)"></path>
                    <path d="M48.1201017,71.8692863 C47.9324713,71.8692863 47.7802733,71.7137949 47.7802733,71.5242009 L47.7802733,65.7677692 C47.7802733,65.5793932 47.9324713,65.4263376 48.1201017,65.4263376 C48.307732,65.4263376 48.4595274,65.5793932 48.4595274,65.7677692 L48.4595274,71.5242009 C48.4595274,71.7137949 48.307732,71.8692863 48.1201017,71.8692863" id="Fill-99" fill="#1D1D1B" mask="url(#mask-2)"></path>
                    <path d="M77.8952284,71.8692863 L73.3393538,71.8692863 C73.1517234,71.8692863 72.9999281,71.7137949 72.9999281,71.5242009 C72.9999281,71.3350128 73.1517234,71.1835812 73.3393538,71.1835812 L77.8952284,71.1835812 C78.0832614,71.1835812 78.2346541,71.3350128 78.2346541,71.5242009 C78.2346541,71.7137949 78.0832614,71.8692863 77.8952284,71.8692863" id="Fill-100" fill="#1D1D1B" mask="url(#mask-2)"></path>
                    <path d="M80.1738502,67.5819038 C79.9858172,67.5819038 79.8340218,67.4288483 79.8340218,67.2392543 L79.8340218,66.1098098 L71.4003188,66.1098098 L71.4003188,67.2392543 C71.4003188,67.4288483 71.2485234,67.5819038 71.0604904,67.5819038 C70.8728601,67.5819038 70.7222726,67.4288483 70.7222726,67.2392543 L70.7222726,65.7675662 C70.7222726,65.5791902 70.8728601,65.4261346 71.0604904,65.4261346 L80.1738502,65.4261346 C80.3602726,65.4261346 80.5132759,65.5791902 80.5132759,65.7675662 L80.5132759,67.2392543 C80.5132759,67.4288483 80.3602726,67.5819038 80.1738502,67.5819038" id="Fill-101" fill="#1D1D1B" mask="url(#mask-2)"></path>
                    <path d="M75.6178145,71.8692863 C75.4297815,71.8692863 75.2767782,71.7137949 75.2767782,71.5242009 L75.2767782,65.7677692 C75.2767782,65.5793932 75.4297815,65.4263376 75.6178145,65.4263376 C75.8046396,65.4263376 75.956435,65.5793932 75.956435,65.7677692 L75.956435,71.5242009 C75.956435,71.7137949 75.8046396,71.8692863 75.6178145,71.8692863" id="Fill-102" fill="#1D1D1B" mask="url(#mask-2)"></path>
                    <path d="M105.875989,71.8692863 L101.318906,71.8692863 C101.130873,71.8692863 100.979078,71.7137949 100.979078,71.5242009 C100.979078,71.3350128 101.130873,71.1835812 101.318906,71.1835812 L105.875989,71.1835812 C106.062411,71.1835812 106.215415,71.3350128 106.215415,71.5242009 C106.215415,71.7137949 106.062411,71.8692863 105.875989,71.8692863" id="Fill-103" fill="#1D1D1B" mask="url(#mask-2)"></path>
                    <path d="M105.875989,66.1098098 L101.318906,66.1098098 C101.130873,66.1098098 100.979078,65.9567543 100.979078,65.7675662 C100.979078,65.5791902 101.130873,65.4261346 101.318906,65.4261346 L105.875989,65.4261346 C106.062411,65.4261346 106.215415,65.5791902 106.215415,65.7675662 C106.215415,65.9567543 106.062411,66.1098098 105.875989,66.1098098" id="Fill-104" fill="#1D1D1B" mask="url(#mask-2)"></path>
                    <path d="M103.596199,71.8692863 C103.409374,71.8692863 103.257579,71.7137949 103.257579,71.5242009 L103.257579,65.7677692 C103.257579,65.5793932 103.409374,65.4263376 103.596199,65.4263376 C103.78544,65.4263376 103.936833,65.5793932 103.936833,65.7677692 L103.936833,71.5242009 C103.936833,71.7137949 103.78544,71.8692863 103.596199,71.8692863" id="Fill-105" fill="#1D1D1B" mask="url(#mask-2)"></path>
                    <path d="M53.0624706,68.9917201 L48.1200614,68.9917201 C47.932431,68.9917201 47.780233,68.8346047 47.780233,68.6466346 C47.780233,68.4574466 47.932431,68.304391 48.1200614,68.304391 L53.0624706,68.304391 C54.0199492,68.304391 54.6138436,67.8829808 54.6138436,67.2086432 C54.6138436,66.5310577 54.0199492,66.1096474 53.0624706,66.1096474 L45.8415201,66.1096474 C45.6550977,66.1096474 45.5020944,65.9565919 45.5020944,65.7678098 C45.5020944,65.5794338 45.6550977,65.4263782 45.8415201,65.4263782 L53.0624706,65.4263782 C54.6041802,65.4263782 55.2951109,66.3199466 55.2951109,67.2086432 C55.2951109,68.0928739 54.6041802,68.9917201 53.0624706,68.9917201" id="Fill-106" fill="#1D1D1B" mask="url(#mask-2)"></path>
                    <path d="M33.8372033,68.9917201 L28.8972099,68.9917201 C28.7091769,68.9917201 28.5573815,68.8346047 28.5573815,68.6466346 C28.5573815,68.4574466 28.7091769,68.304391 28.8972099,68.304391 L33.8372033,68.304391 C34.0248337,68.304391 34.176629,68.4574466 34.176629,68.6466346 C34.176629,68.8346047 34.0248337,68.9917201 33.8372033,68.9917201" id="Fill-107" fill="#1D1D1B" mask="url(#mask-2)"></path>
                    <path d="M93.5219386,71.8692863 L88.9652587,71.8692863 C88.7772257,71.8692863 88.6266383,71.7137949 88.6266383,71.5242009 C88.6266383,71.3350128 88.7772257,71.1835812 88.9652587,71.1835812 L93.5219386,71.1835812 C93.7099716,71.1835812 93.8605591,71.3350128 93.8605591,71.5242009 C93.8605591,71.7137949 93.7099716,71.8692863 93.5219386,71.8692863" id="Fill-108" fill="#1D1D1B" mask="url(#mask-2)"></path>
                    <path d="M91.2448871,71.8692863 C91.0556462,71.8692863 90.9038508,71.7137949 90.9038508,71.5242009 L90.9038508,65.7677692 C90.9038508,65.5793932 91.0556462,65.4263376 91.2448871,65.4263376 C91.4301017,65.4263376 91.583105,65.5793932 91.583105,65.7677692 L91.583105,71.5242009 C91.583105,71.7137949 91.4301017,71.8692863 91.2448871,71.8692863" id="Fill-109" fill="#1D1D1B" mask="url(#mask-2)"></path>
                    <path d="M96.1846792,68.9917201 L91.2446858,68.9917201 C91.0558475,68.9917201 90.9040521,68.8346047 90.9040521,68.6466346 C90.9040521,68.4574466 91.0558475,68.304391 91.2446858,68.304391 L96.1846792,68.304391 C97.1433657,68.304391 97.7380653,67.8829808 97.7380653,67.2086432 C97.7380653,66.5310577 97.1433657,66.1096474 96.1846792,66.1096474 L88.9649366,66.1096474 C88.7773063,66.1096474 88.6267188,65.9565919 88.6267188,65.7678098 C88.6267188,65.5794338 88.7773063,65.4263782 88.9649366,65.4263782 L96.1846792,65.4263782 C97.7263888,65.4263782 98.4177221,66.3199466 98.4177221,67.2086432 C98.4177221,68.0928739 97.7263888,68.9917201 96.1846792,68.9917201" id="Fill-110" fill="#1D1D1B" mask="url(#mask-2)"></path>
                    <path d="M54.7076587,71.9105342 C52.9662396,71.9105342 51.5501538,70.4810684 51.5501538,68.7255983 C51.5501538,68.5351923 51.7015465,68.3833547 51.8907875,68.3833547 C52.0776125,68.3833547 52.2290053,68.5351923 52.2290053,68.7255983 C52.2290053,70.1039103 53.341903,71.2223932 54.7076587,71.2223932 C55.481936,71.2223932 56.1128733,70.5894658 56.1128733,69.8099786 C56.1128733,69.6183547 56.2658766,69.4661111 56.4527017,69.4661111 C56.640332,69.4661111 56.7921274,69.6183547 56.7921274,69.8099786 C56.7921274,70.9670299 55.8563914,71.9105342 54.7076587,71.9105342" id="Fill-111" fill="#1D1D1B" mask="url(#mask-2)"></path>
                    <path d="M97.831035,71.9105342 C96.0908238,71.9105342 94.674738,70.4810684 94.674738,68.7255983 C94.674738,68.5351923 94.8273386,68.3833547 95.0141637,68.3833547 C95.2021967,68.3833547 95.3539921,68.5351923 95.3539921,68.7255983 C95.3539921,70.1039103 96.4652792,71.2223932 97.831035,71.2223932 C98.6077281,71.2223932 99.2350416,70.5894658 99.2350416,69.8099786 C99.2350416,69.6183547 99.3892528,69.4661111 99.5760779,69.4661111 C99.7641109,69.4661111 99.9159063,69.6183547 99.9159063,69.8099786 C99.9159063,70.9670299 98.9809756,71.9105342 97.831035,71.9105342" id="Fill-112" fill="#1D1D1B" mask="url(#mask-2)"></path>
                    <path d="M51.3307954,94.9068269 C50.9116469,94.9068269 50.4949142,94.7842201 50.0818053,94.5377885 C49.9195413,94.4415705 49.8676007,94.2316774 49.9626238,94.0692842 C50.0564389,93.906485 50.2658119,93.8504594 50.4276733,93.9466774 C52.0414554,94.9068269 53.4502937,92.9495833 53.9149406,92.3061004 C54.5450726,91.4328312 56.2780363,89.1524252 57.9530198,86.9463141 C59.581297,84.8027244 61.2651386,82.5864637 61.8755413,81.7416132 C63.3206172,79.7417415 64.4298911,78.5030876 65.5005116,78.5030876 C66.1084983,78.5030876 66.571132,78.8294979 66.7108482,79.3576816 C66.8960627,80.0600321 66.4664455,80.8711859 65.6663993,81.3323825 C65.5065512,81.4257585 65.2971782,81.368515 65.2041683,81.2024679 C65.112769,81.0408868 65.1679307,80.8322115 65.3297921,80.7363996 C65.9244917,80.3949679 66.144736,79.8728739 66.0553498,79.5326603 C65.9784455,79.2464423 65.712703,79.1851389 65.5005116,79.1851389 C64.6718779,79.1851389 63.480868,80.6815919 62.4235347,82.1459722 C61.8078977,82.9961004 60.1232508,85.215609 58.4941683,87.3624466 C56.8187822,89.5665278 55.0882343,91.842062 54.4633366,92.7080235 C53.4104323,94.1711859 52.3615545,94.9068269 51.3307954,94.9068269" id="Fill-113" fill="#1D1D1B" mask="url(#mask-2)"></path>
                    <path d="M69.1578541,82.9168526 C68.5196693,82.9168526 67.5223294,83.3918526 66.9107188,83.8603568 C66.0869168,84.4920662 65.2292931,85.5155491 65.1656759,86.3888184 C65.1632601,86.4334765 65.1620521,86.4777286 65.1620521,86.5199509 C65.8952601,86.2479423 66.6445736,85.8931132 67.3886528,85.4526218 C68.6787122,84.6828782 69.6675967,83.7292244 69.6913525,83.2351432 C69.6937683,83.1600363 69.6768574,83.0979209 69.5782106,83.0264679 C69.4735241,82.9521731 69.3277683,82.9168526 69.1578541,82.9168526 M74.2858805,82.9716603 L74.2436033,82.9716603 C73.4934845,82.9972372 72.3085142,83.715015 71.488336,84.6439038 C70.9137683,85.2959124 70.3283294,86.4022158 70.446303,87.0903568 C71.3522436,86.6973654 72.0854515,86.1703996 72.7985274,85.615015 L72.916501,85.5216389 C74.1844152,84.5493098 74.8411215,83.8238184 74.8701116,83.3711474 C74.8745406,83.2802073 74.848369,83.2111902 74.7795175,83.144203 C74.6627518,83.0264679 74.5004878,82.9716603 74.2858805,82.9716603 M71.9022502,88.4430919 L71.854336,88.4430919 C71.0703954,88.4349722 70.446303,88.25025 70.1370752,87.9356132 C69.2927386,88.225891 68.3066726,88.4106132 67.1055967,88.416703 C66.3051479,88.4248226 65.4225604,88.3537756 64.9035571,87.7939252 C64.8008838,87.6830919 64.716732,87.5592671 64.6515043,87.4171731 C61.6325076,88.3509338 58.9541446,88.0281774 57.838831,87.2036261 C57.330699,86.8297158 57.1172997,86.3376645 57.2368838,85.8240962 C57.2787584,85.6393739 57.4607518,85.5216389 57.6435505,85.5650791 C57.8255439,85.6081132 57.9398937,85.7936474 57.8992271,85.9771517 C57.8758739,86.065656 57.8146726,86.3364466 58.2410686,86.6523013 C59.2114317,87.3700791 61.6949168,87.6238184 64.4876297,86.7493312 C64.4779663,86.6206346 64.4791743,86.4821944 64.4888376,86.3376645 C64.5729894,85.1802073 65.5824086,84.0170662 66.5000257,83.3163397 C67.08627,82.8685406 68.9843162,81.7488397 69.9756165,82.4710833 C70.2465934,82.6708269 70.3851017,82.9448654 70.3681908,83.2664038 C70.3166528,84.4445662 68.164138,85.7851218 67.7333129,86.041297 C66.9203822,86.5248226 66.1038277,86.9072585 65.3041842,87.1975363 C65.3319663,87.2446303 65.3629696,87.2884765 65.3979993,87.3258269 C65.6665604,87.6124509 66.1944218,87.7464252 67.1011677,87.7338397 C68.1669564,87.7232842 69.0435043,87.5751004 69.8012733,87.3311047 C69.5431809,86.3234551 70.3090026,84.948797 70.9822172,84.189609 C71.7673657,83.2992885 73.1166132,82.3257415 74.2194449,82.287985 C74.6385934,82.2709338 74.996138,82.4000363 75.2554383,82.6558056 C75.4636033,82.8612329 75.564666,83.1222799 75.5465472,83.4149936 C75.4938013,84.2955705 74.3329894,85.2959124 73.3271941,86.0680919 L73.2140521,86.1565962 C72.5372139,86.6847799 71.8108508,87.2093098 70.9262502,87.6213825 C71.1460917,87.6977073 71.4653855,87.7549509 71.8603756,87.7598226 C72.4599069,87.7715962 74.5516231,87.6392457 76.4271215,85.7205705 C76.5595901,85.5861902 76.7725868,85.5833483 76.9086792,85.7181346 C77.0411479,85.850891 77.0435637,86.065656 76.9098871,86.2016603 C74.8962832,88.2648654 72.6274053,88.4430919 71.9022502,88.4430919" id="Fill-114" fill="#1D1D1B" mask="url(#mask-2)"></path>
                    <path d="M50.4466779,83.0457115 C50.0170607,83.0457115 49.383305,83.3323355 48.8715492,83.6465662 C49.3591465,83.6226132 49.7327967,83.5243654 49.9143875,83.4671218 C50.3226647,83.3384252 50.5626383,83.178062 50.6649089,83.0798141 C50.6008891,83.0554551 50.5276086,83.0457115 50.4466779,83.0457115 M47.6902026,88.4773568 C47.475998,88.4773568 47.2638066,88.4554338 47.0588627,88.4107756 C46.1352059,88.2090021 45.8255756,87.6990876 45.7281366,87.3040662 C45.4825261,86.3134679 46.286196,85.0699423 47.2191135,84.1158825 C46.7870805,83.98475 46.3498132,83.7874423 45.925833,83.5048782 C44.7771003,82.7424423 44.9083611,81.917891 45.0166713,81.6004124 C45.2079254,81.0482756 45.7776614,80.6512244 46.3147835,80.6962885 C46.5016086,80.7104979 46.6401168,80.8781688 46.6232059,81.0665449 C46.607503,81.253297 46.4436284,81.395797 46.255998,81.3775278 C46.05347,81.3616944 45.7575294,81.5411389 45.6608957,81.8253269 C45.5368825,82.1850278 45.7643743,82.5759893 46.3002884,82.9328483 C46.8168759,83.2750919 47.3326581,83.4671218 47.8093842,83.5641517 C47.8118,83.5629338 47.8142158,83.5609038 47.8178396,83.5584679 C48.2369881,83.1987671 50.0098132,81.9714808 51.029701,82.4907329 C51.3429551,82.6510962 51.3932851,82.892656 51.395701,83.0213526 C51.4017406,83.3286816 51.171833,83.6177415 50.7333578,83.8605192 C50.1531531,84.1836816 49.1401102,84.4337671 48.0211729,84.2880192 C46.9026383,85.313938 46.2245921,86.4823568 46.3868561,87.1404551 C46.4146383,87.2496645 46.4991927,87.5874423 47.2026053,87.7425278 C48.8727571,88.1046645 51.2946383,86.3934466 52.0556284,85.338297 C52.1663545,85.1856474 52.377338,85.1515449 52.5303413,85.2631902 C52.681734,85.3736175 52.7155558,85.5900064 52.6060376,85.743062 C51.8450475,86.7941517 49.6232785,88.4773568 47.6902026,88.4773568" id="Fill-115" fill="#1D1D1B" mask="url(#mask-2)"></path>
                    <path d="M56.2503749,82.8391474 C56.1911868,82.8391474 56.1324013,82.848891 56.0780449,82.8720321 C55.9165861,82.9349594 55.8251868,83.0738056 55.8312264,83.1692115 C55.837266,83.2666474 55.9721505,83.3563697 56.1795102,83.4030577 C56.3647248,83.4452799 56.6489888,83.4948098 57.0294838,83.5220107 C57.0089492,83.418485 56.9706983,83.3311987 56.9163419,83.2581218 C56.7021373,82.9848953 56.467398,82.8391474 56.2503749,82.8391474 M52.8339723,88.2732286 C52.8057875,88.2732286 52.7808238,88.2732286 52.7542495,88.2707927 C52.3133584,88.2537415 51.9654772,88.1104295 51.7412066,87.8510064 C51.5064673,87.5725021 51.429563,87.1851944 51.5161307,86.697203 C51.7387908,85.4439338 53.0264343,83.6990192 54.2138205,83.0360491 C54.377695,82.945109 54.5846521,83.0056004 54.6748436,83.1692115 C54.7654376,83.3348526 54.7066521,83.5435278 54.5427776,83.6344679 C53.5381901,84.1943184 52.3725465,85.77075 52.1857215,86.8185919 C52.1531076,87.0081859 52.1378073,87.2639551 52.2569888,87.4023953 C52.3773782,87.5448953 52.6060779,87.5802158 52.7772,87.5871175 C53.5128238,87.6126944 54.8097281,87.1088697 55.7784805,86.1227372 C56.375596,85.5157927 56.8056158,84.7919252 56.9706983,84.2016261 C56.5479261,84.1748312 56.2310482,84.1175876 56.0301307,84.0717115 C55.5119327,83.9527585 55.1845861,83.6344679 55.1543881,83.2195534 C55.1241901,82.8091047 55.4012066,82.4010919 55.8312264,82.232203 C56.3804277,82.017438 56.9864013,82.2415406 57.4474244,82.8354936 C57.6052594,83.0360491 57.6918271,83.2751731 57.7184013,83.5362201 C59.3164805,83.5037415 61.9296158,82.9885491 65.3125993,80.7483355 C65.4704343,80.6452158 65.6810152,80.688656 65.7832858,80.8469893 C65.887167,81.0045107 65.8424739,81.2172457 65.6858469,81.3203654 C62.145431,83.6649167 59.370837,84.1918825 57.6680713,84.2198953 C57.4917149,85.0237415 56.9344607,85.9189338 56.2600383,86.6034209 C55.3013518,87.5826517 53.8756026,88.2732286 52.8339723,88.2732286" id="Fill-116" fill="#1D1D1B" mask="url(#mask-2)"></path>
                    <path d="M68.6376429,79.1853013 C67.8090092,79.1853013 66.6159861,80.6817543 65.5594581,82.1461346 C65.5212073,82.1993184 65.4773195,82.2614338 65.4294053,82.3255791 C66.3603096,81.9325876 67.3922766,81.4307927 68.3654581,80.6716047 C68.9750554,80.1970107 69.2097947,79.6603013 69.1192007,79.3968184 C69.0616231,79.2218397 68.8256759,79.1853013 68.6376429,79.1853013 L68.6376429,79.1853013 Z M54.4111545,94.8972457 C53.782633,94.8972457 53.2201446,94.6191474 52.7397947,94.0666047 C52.6157815,93.9261346 52.6302766,93.7081218 52.7699927,93.583485 C52.9117221,93.4596603 53.1251215,93.4726517 53.2503426,93.6135278 C53.6187584,94.0377799 54.0185802,94.2298098 54.478798,94.2127585 C55.2687782,94.1733782 56.2057221,93.4803654 57.0512667,92.3058568 C57.680996,91.4329936 59.4139597,89.1525876 61.0901512,86.9460705 C62.7172205,84.8028868 64.4018673,82.5866261 65.0114647,81.7417756 C66.4541248,79.7414979 67.5670224,78.502844 68.6376429,78.502844 C69.4481578,78.502844 69.6937683,78.9741902 69.7650356,79.1767756 C69.9711875,79.7877799 69.5846528,80.5879722 68.7821908,81.2131859 C67.4192535,82.279297 65.9749828,82.8513269 64.8153789,83.3141474 L64.6442568,83.3807286 C63.8409894,84.4508996 62.7208442,85.9250235 61.6300917,87.362609 C59.9571215,89.5662842 58.2253657,91.8422244 57.6016759,92.7081859 C56.618831,94.0726944 55.5204284,94.8501517 54.5114119,94.8972457 L54.4111545,94.8972457 Z" id="Fill-117" fill="#1D1D1B" mask="url(#mask-2)"></path>
                    <polygon id="Fill-119" fill="#1D1D1B" mask="url(#mask-2)" points="59.8903234 29.9875214 61.9292937 29.9875214 61.9292937 25.3865171 59.8903234 25.3865171"></polygon>
                    <path d="M60.6585611,29.2805427 C60.4189901,29.2805427 60.2973927,29.3597094 60.2841056,29.4019316 C60.2599472,29.4823162 60.4572409,29.7421453 60.8703498,29.867188 C60.9935578,29.9025085 61.1199868,29.9219957 61.2355446,29.9219957 C61.4751155,29.9219957 61.5991287,29.8428291 61.6112079,29.8014188 C61.6160396,29.7819316 61.6075842,29.7518889 61.5894653,29.7190043 C61.528264,29.6012692 61.3426469,29.4335983 61.0273795,29.3377863 C60.9041716,29.298812 60.7753267,29.2805427 60.6585611,29.2805427" id="Fill-120" fill="#FEFEFE" mask="url(#mask-2)"></path>
                    <path d="M46.7820475,45.0429103 L46.7820475,46.142312 C46.7820475,46.142312 52.3988792,47.1572692 52.3755261,47.0050256 C52.3517703,46.8527821 52.4157901,45.9056239 52.3755261,45.9056239 C52.335262,45.9056239 46.7820475,45.0429103 46.7820475,45.0429103" id="Fill-121" fill="#1D1D1B" mask="url(#mask-2)"></path>
                </g>
            </g>
        </g>
    </g>
</svg>