<?xml version="1.0" encoding="UTF-8"?>
<svg width="22px" height="68px" viewBox="0 0 22 68" version="1.1" xmlns="http://www.w3.org/2000/svg" xmlns:xlink="http://www.w3.org/1999/xlink">
    <!-- Generator: Sketch 46.2 (44496) - http://www.bohemiancoding.com/sketch -->
    <title>mouse</title>
    <desc>Created with Sketch.</desc>
    <defs>
        <polygon id="path-1" points="1.375e-05 35 21.9767625 35 21.9767625 2.05078125e-05 1.375e-05 2.05078125e-05"></polygon>
    </defs>
    <g id="Page-1" stroke="none" stroke-width="1" fill="none" fill-rule="evenodd">
        <g id="О-компании-1" transform="translate(-469.000000, -986.000000)">
            <g id="mouse" transform="translate(469.000000, 986.000000)">
                <g id="Page-1" stroke-width="1" opacity="0.3">
                    <g>
                        <g id="Group-3">
                            <mask id="mask-2" fill="white">
                                <use xlink:href="#path-1"></use>
                            </mask>
                            <g id="Clip-2"></g>
                            <path d="M20.1143387,24.0740732 C20.1143387,29.077501 16.0205512,33.1480967 10.988395,33.1480967 C5.95623875,33.1480967 1.86245125,29.0775693 1.86245125,24.0740732 L1.86245125,10.9259678 C1.86245125,5.92240332 5.9563075,1.85187598 10.988395,1.85187598 C13.4253762,1.85187598 15.717295,2.79564551 17.4414762,4.5091416 C19.1651075,6.22393652 20.1143387,8.50283301 20.1143387,10.9259678 L20.1143387,24.0740732 Z M18.7583137,3.19971777 C16.6821325,1.13629004 13.9227137,2.05078125e-05 10.988395,2.05078125e-05 C4.9294575,2.05078125e-05 1.375e-05,4.9013877 1.375e-05,10.9259678 L1.375e-05,24.0741416 C1.375e-05,30.0986533 4.9294575,35.0000205 10.988395,35.0000205 C17.0473325,35.0000205 21.9767762,30.0986533 21.9767762,24.0740732 L21.9767762,10.9259678 C21.9767762,8.00818457 20.833945,5.26458105 18.7583137,3.19971777 L18.7583137,3.19971777 Z" id="Fill-1" fill="#212121" mask="url(#mask-2)"></path>
                        </g>
                        <path d="M11,5 C10.4476929,5 10,5.51456068 10,6.14941882 L10,8.85058118 C10,9.48537683 10.4476929,10 11,10 C11.5523071,10 12,9.48537683 12,8.85058118 L12,6.14941882 C12,5.51456068 11.5521595,5 11,5" id="Fill-4" fill="#212121"></path>
                    </g>
                </g>
                <rect id="Rectangle-2" fill-opacity="0.3" fill="#212121" x="3" y="43" width="16" height="3" rx="1.5"></rect>
                <rect id="Rectangle-2-Copy" fill-opacity="0.2" fill="#212121" x="5" y="54" width="12" height="3" rx="1.5"></rect>
                <rect id="Rectangle-2-Copy-2" fill-opacity="0.1" fill="#212121" x="7" y="65" width="8" height="3" rx="1.5"></rect>
            </g>
        </g>
    </g>
</svg>