<?xml version="1.0" encoding="UTF-8"?>
<svg width="26px" height="20px" viewBox="0 0 26 20" version="1.1" xmlns="http://www.w3.org/2000/svg" xmlns:xlink="http://www.w3.org/1999/xlink">
    <!-- Generator: Sketch 47.1 (45422) - http://www.bohemiancoding.com/sketch -->
    <title>social-twitter</title>
    <desc>Created with Sketch.</desc>
    <defs></defs>
    <g id="Page-1" stroke="none" stroke-width="1" fill="none" fill-rule="evenodd">
        <g id="Блог-2-Copy" transform="translate(-1757.000000, -975.000000)" fill-rule="nonzero" fill="#FFFFFF">
            <g id="social-twitter" transform="translate(1757.000000, 975.000000)">
                <path d="M26,2.36631471 C25.043054,2.76786846 24.0162647,3.04019762 22.9374329,3.16177817 C24.0389935,2.53709876 24.8822106,1.54626961 25.281855,0.369247605 C24.2485658,0.947740883 23.1080051,1.36780127 21.8927155,1.59551335 C20.9195407,0.612368467 19.5352934,0 17.9999314,0 C15.0543645,0 12.6660566,2.26171198 12.6660566,5.04961589 C12.6660566,5.44501417 12.7131711,5.83119937 12.8041712,6.20048721 C8.37201368,5.98967249 4.44188634,3.97876565 1.81150623,0.923119012 C1.35170482,1.66780992 1.0901325,2.53552972 1.0901325,3.46178682 C1.0901325,5.21424448 2.03246411,6.76051408 3.46221154,7.66516669 C2.5881088,7.6374872 1.76600615,7.40977512 1.04628929,7.0312742 L1.04628929,7.09435769 C1.04628929,9.54069348 2.88545243,11.5823777 5.32410347,12.0470551 C4.87730209,12.1609112 4.40615753,12.2239947 3.9187417,12.2239947 C3.5743261,12.2239947 3.24125366,12.1916885 2.91468123,12.1301338 C3.59378365,14.1379831 5.562947,15.5980761 7.89602597,15.6381068 C6.07147724,16.9920683 3.77089832,17.7967448 1.2721328,17.7967448 C0.841602682,17.7967448 0.417530094,17.772123 0,17.7275059 C2.3606934,19.1630173 5.16330255,20 8.17548395,20 C17.9870163,20 23.3501623,12.3040157 23.3501623,5.62967821 L23.3322767,4.9757905 C24.3801804,4.26799217 25.2867407,3.37870812 26,2.36631471 Z" id="Shape"></path>
            </g>
        </g>
    </g>
</svg>