<?xml version="1.0" encoding="UTF-8"?>
<svg width="24px" height="24px" viewBox="0 0 24 24" version="1.1" xmlns="http://www.w3.org/2000/svg" xmlns:xlink="http://www.w3.org/1999/xlink">
    <!-- Generator: Sketch 47.1 (45422) - http://www.bohemiancoding.com/sketch -->
    <title>social-instagram</title>
    <desc>Created with Sketch.</desc>
    <defs></defs>
    <g id="Page-1" stroke="none" stroke-width="1" fill="none" fill-rule="evenodd">
        <g id="Главная" transform="translate(-1715.000000, -119.000000)" fill-rule="nonzero" fill="#212121">
            <g id="social-instagram" transform="translate(1715.000000, 119.000000)">
                <path d="M17.5152656,0 L6.48473438,0 C2.9090625,0 0,2.9090625 0,6.48473438 L0,17.5152656 C0,21.0909375 2.9090625,24 6.48473438,24 L17.5152656,24 C21.0909375,24 24,21.0909375 24,17.5152656 L24,6.48473438 C24,2.9090625 21.0909375,0 17.5152656,0 Z M22.0610625,17.5152656 C22.0610625,20.0218125 20.0218594,22.0610625 17.5152656,22.0610625 L6.48473438,22.0610625 C3.9781875,22.0610625 1.9389375,20.0218594 1.9389375,17.5152656 L1.9389375,6.48473438 C1.9389375,3.9781875 3.97814063,1.9389375 6.48473438,1.9389375 L17.5152656,1.9389375 C20.0218125,1.9389375 22.0610625,3.97814063 22.0610625,6.48473438 L22.0610625,17.5152656 L22.0610625,17.5152656 Z" id="Shape"></path>
                <path d="M17.939391,11.6927989 C17.7650516,10.5169856 17.2286704,9.45129554 16.3882489,8.61078567 C15.5478274,7.77032369 14.4822493,7.23383821 13.3066075,7.05952833 C12.7713279,6.98015722 12.2286245,6.98015722 11.6933928,7.05952833 C10.2404363,7.27503263 8.95841873,8.04345228 8.08341669,9.22328922 C7.20841464,10.4031262 6.84512763,11.8531698 7.06060927,13.3061832 C7.27609092,14.7592445 8.04442979,16.0413969 9.22414271,16.9165388 C10.1818602,17.626951 11.3174614,18 12.4883616,18 C12.7597851,18 13.0331724,17.9799776 13.3065596,17.9394059 C14.7595161,17.7239016 16.0415337,16.9554819 16.9165357,15.775645 C17.7915857,14.595856 18.1548727,13.1458603 17.939391,11.6927989 Z M13.0159779,15.9794616 C12.0865666,16.1175108 11.1590711,15.8849539 10.4043825,15.3251409 C9.64969381,14.7653279 9.15819067,13.9450799 9.02039545,13.0155709 C8.88255233,12.0860619 9.11489318,11.158469 9.67464734,10.403701 C10.2344494,9.64893296 11.0545633,9.15737814 11.9840224,9.01952054 C12.1552008,8.99413328 12.3275765,8.98143965 12.4999523,8.98143965 C12.672328,8.98143965 12.8447516,8.99413328 13.01593,9.01956844 C14.5596484,9.24848487 15.7506646,10.4395784 15.9796049,11.983507 C16.2641039,13.9023048 14.9346698,15.6949327 13.0159779,15.9794616 Z" id="Shape"></path>
                <path d="M17.8535512,5.14644877 C17.7604313,5.053353 17.6315573,5 17.5,5 C17.3684427,5 17.2395687,5.05332882 17.1464488,5.14644877 C17.053353,5.23956873 17,5.36822511 17,5.5 C17,5.63177489 17.053353,5.76043127 17.1464488,5.85355123 C17.2395687,5.946647 17.3684427,6 17.5,6 C17.6315573,6 17.7604313,5.94667118 17.8535512,5.85355123 C17.946647,5.76043127 18,5.63155732 18,5.5 C18,5.36841851 17.946647,5.23954455 17.8535512,5.14644877 Z" id="Shape"></path>
            </g>
        </g>
    </g>
</svg>