<?xml version="1.0" encoding="UTF-8"?>
<svg width="28px" height="23px" viewBox="0 0 28 23" version="1.1" xmlns="http://www.w3.org/2000/svg" xmlns:xlink="http://www.w3.org/1999/xlink">
    <!-- Generator: Sketch 47.1 (45422) - http://www.bohemiancoding.com/sketch -->
    <title>social-telegram</title>
    <desc>Created with Sketch.</desc>
    <defs></defs>
    <g id="Page-1" stroke="none" stroke-width="1" fill="none" fill-rule="evenodd">
        <g id="Главная" transform="translate(-1771.000000, -119.000000)" fill-rule="nonzero" fill="#212121">
            <g id="social-telegram" transform="translate(1771.000000, 119.000000)">
                <path d="M0.49456323,11.0284164 L6.94633168,13.3002386 L9.44356161,20.8771176 C9.60334849,21.3623894 10.2323226,21.5417577 10.6498032,21.2197401 L14.2461279,18.4537526 C14.6231017,18.1639632 15.1600491,18.1495222 15.5540096,18.4193231 L22.0404981,22.8623203 C22.4870987,23.1685761 23.1198062,22.9376955 23.2318063,22.4285608 L27.9835059,0.864654036 C28.1057727,0.308497888 27.5265453,-0.155464548 26.9652379,0.0493516647 L0.48700322,9.68619223 C-0.166424302,9.92394106 -0.160730961,10.7967434 0.49456323,11.0284164 Z M9.04110775,12.0908895 L21.6502709,4.76408704 C21.8768846,4.63279685 22.1100315,4.92188182 21.9154313,5.09218042 L11.5092177,14.2182132 C11.1434438,14.5394383 10.9074969,14.9693234 10.8406701,15.4359275 L10.4861896,17.914327 C10.4392429,18.2452381 9.94653561,18.2780827 9.84974881,17.9578262 L8.48642703,13.4383971 C8.33028016,12.9229224 8.55782712,12.3723137 9.04110775,12.0908895 Z" id="XMLID_497_"></path>
            </g>
        </g>
    </g>
</svg>