<?xml version="1.0" encoding="UTF-8"?>
<svg width="28px" height="17px" viewBox="0 0 28 17" version="1.1" xmlns="http://www.w3.org/2000/svg" xmlns:xlink="http://www.w3.org/1999/xlink">
    <!-- Generator: Sketch 47.1 (45422) - http://www.bohemiancoding.com/sketch -->
    <title>social-vk</title>
    <desc>Created with Sketch.</desc>
    <defs></defs>
    <g id="Page-1" stroke="none" stroke-width="1" fill="none" fill-rule="evenodd">
        <g id="Блог-2-Copy" transform="translate(-1706.000000, -977.000000)" fill-rule="nonzero" fill="#FFFFFF">
            <g id="social-vk" transform="translate(1706.000000, 977.000000)">
                <path d="M27.8515029,15.3528659 C27.8175981,15.2751099 27.7859911,15.210612 27.7566308,15.1589376 C27.2708324,14.2278751 26.3424847,13.0850618 24.9721494,11.7301716 L24.9431975,11.6991452 L24.9286961,11.6839309 L24.9140415,11.6683362 L24.8993358,11.6683362 C24.2774077,11.0374307 23.8835709,10.6132226 23.7186426,10.3960381 C23.4168696,9.98231706 23.3492642,9.5635427 23.5141926,9.13922598 C23.6307148,8.81863837 24.0684133,8.1416008 24.8262669,7.10718955 C25.2249034,6.55898474 25.5406162,6.1196167 25.7737626,5.78859641 C27.4552662,3.40972766 28.1842701,1.88959901 27.9606211,1.22761276 L27.8737656,1.07291565 C27.8154024,0.979782235 27.6647713,0.894582002 27.4220763,0.816880259 C27.1788197,0.739341526 26.8679067,0.726518022 26.4887757,0.778192398 L22.2903014,0.809055748 C22.2222876,0.783408739 22.1251688,0.785799562 21.9986386,0.816880259 C21.8722616,0.847960956 21.8090476,0.863555642 21.8090476,0.863555642 L21.7359787,0.902406513 L21.6779729,0.949081896 C21.6293624,0.979945246 21.5759011,1.03422779 21.5175379,1.11182086 C21.4594811,1.18914225 21.4109217,1.27988484 21.372115,1.38328793 C20.9150131,2.63472069 20.39531,3.79823637 19.8120354,4.87378064 C19.4524098,5.51511887 19.1221445,6.07093085 18.8205247,6.5415426 C18.5193134,7.01199133 18.2666104,7.35860631 18.0626711,7.58078983 C17.8584254,7.80319069 17.6740937,7.98136133 17.5085526,8.11595379 C17.3432668,8.25060059 17.217094,8.30749131 17.1297279,8.28668028 C17.0421576,8.26586925 16.9596934,8.24522124 16.8816205,8.22457322 C16.7456439,8.1314398 16.6362703,8.00478053 16.5538062,7.84448672 C16.4709845,7.68419292 16.4152255,7.48244007 16.3860694,7.23939119 C16.3570665,6.9961793 16.3399099,6.7869823 16.335008,6.61109381 C16.3304635,6.43542267 16.332557,6.1869401 16.3424119,5.86635249 C16.352522,5.54560186 16.3570665,5.32858035 16.3570665,5.21479892 C16.3570665,4.82172591 16.3642662,4.39512703 16.3787165,3.93489363 C16.3934222,3.47466023 16.4053195,3.11000541 16.4152765,2.84136386 C16.4251824,2.57245062 16.429778,2.2879427 16.429778,1.9880031 C16.429778,1.68806351 16.4126213,1.45283914 16.3787165,1.28211265 C16.3452203,1.11160351 16.2938014,0.946093367 16.2260429,0.785636551 C16.1578759,0.625342745 16.0581019,0.501345977 15.9271804,0.413320227 C15.7960036,0.325403149 15.6329134,0.255634591 15.438829,0.203797205 C14.9236703,0.0797461 14.2676842,0.0126400491 13.4705644,0.00220736751 C11.6629391,-0.0184406481 10.5014449,0.105773467 9.98633731,0.374686703 C9.78224482,0.488305125 9.59755566,0.643545601 9.43242302,0.839919097 C9.25743554,1.0675363 9.23302818,1.19175042 9.35935413,1.21218108 C9.94257768,1.30515149 10.3554603,1.52755236 10.5984616,1.87916633 L10.686032,2.0654875 C10.7541479,2.19991695 10.8221617,2.4379125 10.8902266,2.77914813 C10.9581893,3.12038375 11.0020511,3.49786208 11.0213523,3.91136576 C11.0698607,4.66648543 11.0698607,5.31287699 11.0213523,5.85059479 C10.9726908,6.38852994 10.9267355,6.80730429 10.8828737,7.10724389 C10.839012,7.40718349 10.7734491,7.65023237 10.686032,7.83633619 C10.5984616,8.02249435 10.5402005,8.13627579 10.5109934,8.17757182 C10.4818373,8.21886785 10.4575321,8.24489522 10.4382309,8.25511055 C10.3119049,8.30662192 10.1805239,8.33286663 10.0445473,8.33286663 C9.90836652,8.33286663 9.74323389,8.26038123 9.54889412,8.1155191 C9.35460542,7.97065697 9.15296387,7.7716753 8.94396948,7.51824808 C8.73497508,7.26476652 8.49927556,6.91054437 8.2367688,6.45552731 C7.97446628,6.00051025 7.70230891,5.46273812 7.42044987,4.84221091 L7.18725236,4.39219284 C7.04147201,4.10268593 6.84233247,3.68114039 6.5896295,3.12793658 C6.33677334,2.57451542 6.11327751,2.03918845 5.9189888,1.52206433 C5.84132438,1.30487981 5.72464904,1.13953267 5.56916701,1.02575124 L5.49620024,0.979075855 C5.44769189,0.937779824 5.36982322,0.893929959 5.26300273,0.84720024 C5.15602906,0.800524857 5.04440879,0.767053337 4.92768238,0.746459658 L0.933198521,0.777323008 C0.525013526,0.777323008 0.248056381,0.875727103 0.102224964,1.07226361 L0.0438617602,1.16523402 C0.0147056891,1.21701707 0,1.2997178 0,1.41355357 C0,1.52733501 0.0291560711,1.6669808 0.0875192747,1.83232793 C0.670640697,3.29072988 1.30477248,4.69724011 1.98991462,6.05207595 C2.67505676,7.4069118 3.27043292,8.4982681 3.77568568,9.32516679 C4.28104056,10.1526632 4.79614817,10.9336472 5.32100851,11.6677385 C5.84586885,12.4021015 6.19329075,12.8727132 6.36327422,13.0794651 C6.53346194,13.2865973 6.66714074,13.4414574 6.76431062,13.5448605 L7.1288381,13.9171225 C7.36208667,14.1653877 7.70460668,14.4627191 8.15655131,14.8091167 C8.60859807,15.1557317 9.10905105,15.4969673 9.65816556,15.833367 C10.2073822,16.1692233 10.8463138,16.4432985 11.5753177,16.6552667 C12.3042194,16.8674522 13.0136668,16.9525981 13.7037619,16.9115194 L15.3803126,16.9115194 C15.7203306,16.8802757 15.9779355,16.7664943 16.1530251,16.5701208 L16.2110308,16.4923647 C16.2500418,16.430638 16.2865507,16.3347334 16.3202512,16.2056833 C16.3543602,16.0764159 16.3713126,15.9339989 16.3713126,15.7790844 C16.3613557,15.3344457 16.3931669,14.9337112 16.4658784,14.5769352 C16.5385388,14.2202679 16.6213604,13.9513547 16.7139858,13.7702499 C16.8065602,13.589308 16.9110319,13.4366214 17.0272987,13.312842 C17.1438209,13.1887909 17.2268467,13.113643 17.2755593,13.0877786 C17.3239656,13.0617512 17.3626191,13.0440918 17.3917751,13.0334961 C17.6250237,12.9507953 17.8995299,13.0308879 18.2157022,13.2741541 C18.5316192,13.517203 18.8279286,13.8173056 19.10509,14.1739729 C19.3820982,14.5309662 19.7149166,14.9314834 20.1035961,15.3761221 C20.4925309,15.8209238 20.8326,16.1515638 21.1240586,16.3690743 L21.4155172,16.5552325 C21.6101633,16.6794466 21.8628663,16.793228 22.1739325,16.8966311 C22.484437,16.9999799 22.7564922,17.0258442 22.9900982,16.9741699 L26.7220242,16.9122258 C27.0911473,16.9122258 27.3783677,16.8471846 27.5821028,16.7181345 C27.7862464,16.588867 27.9075172,16.44645 27.9466303,16.2915356 C27.9856412,16.1364581 27.9877347,15.9605153 27.9540342,15.7638158 C27.9194656,15.5676053 27.8854077,15.4304047 27.8515029,15.3528659 Z" id="Shape"></path>
            </g>
        </g>
    </g>
</svg>