<?xml version="1.0" encoding="UTF-8"?>
<svg width="24px" height="24px" viewBox="0 0 24 24" version="1.1" xmlns="http://www.w3.org/2000/svg" xmlns:xlink="http://www.w3.org/1999/xlink">
    <!-- Generator: Sketch 47.1 (45422) - http://www.bohemiancoding.com/sketch -->
    <title>facebook-logo</title>
    <desc>Created with Sketch.</desc>
    <defs></defs>
    <g id="Page-1" stroke="none" stroke-width="1" fill="none" fill-rule="evenodd">
        <g id="Главная" transform="translate(-1659.000000, -119.000000)" fill-rule="nonzero" fill="#212121">
            <g id="facebook-logo" transform="translate(1659.000000, 119.000000)">
                <path d="M22.6797893,1.32018963 C21.7999225,0.440117938 20.7398354,0 19.5003489,0 L4.50003421,0 C3.26054774,0 2.20046063,0.440117938 1.3202107,1.32018963 C0.440124963,2.20042551 0,3.26044097 0,4.49996237 L0,19.4998734 C0,20.7392854 0.440124963,21.7994103 1.3202107,22.6796462 C2.20046063,23.5598821 3.26054774,24 4.50003421,24 L19.5001847,24 C20.7396712,24 21.7997583,23.5598821 22.6796251,22.6796462 C23.559875,21.7994103 24,20.7393401 24,19.4998734 L24,4.49996237 C23.9999453,3.26044097 23.5598203,2.20026132 22.6797893,1.32018963 Z M20.4219734,12.3436609 L17.6875835,12.3436609 L17.6875835,22.2653049 L13.5937975,22.2653049 L13.5937975,12.3436609 L11.5469592,12.3436609 L11.5469592,8.92166453 L13.5938522,8.92166453 L13.5938522,6.87474945 C13.5938522,5.40597487 13.9377101,4.29670473 14.6250975,3.54661066 C15.3124302,2.7965166 16.4477687,2.42168848 18.0314961,2.42168848 L20.765886,2.42168848 L20.765886,5.84357534 L19.0473628,5.84357534 C18.463795,5.84357534 18.0914236,5.94498526 17.9299751,6.14829764 C17.7685814,6.3513911 17.6876382,6.70815917 17.6876382,7.21865658 L17.6876382,8.92171926 L20.7816478,8.92171926 L20.4219734,12.3436609 Z" id="social-facebook"></path>
            </g>
        </g>
    </g>
</svg>